<svg xmlns="http://www.w3.org/2000/svg" width="38.531" height="38.531" viewBox="0 0 38.531 38.531"><path d="M49.766,17a.638.638,0,0,0-.475-.446l-3.917-.885-.885-3.917a.639.639,0,0,0-1.075-.311l-4.505,4.506a18.23,18.23,0,1,0,6.19,6.19l4.507-4.507a.64.64,0,0,0,.161-.63ZM46.44,31.554a16.95,16.95,0,1,1-8.465-14.676l-2.069,2.069a.634.634,0,0,0-.049.064,14.086,14.086,0,1,0,6.171,6.179.63.63,0,0,0,.067-.054l2.069-2.069A16.893,16.893,0,0,1,46.44,31.554Zm-5.93-6.47a12.771,12.771,0,1,1-4.554-4.558l.673,2.982-.646.646a9.872,9.872,0,1,0,.9.9l.646-.646Zm-8.274,6.47a2.759,2.759,0,1,1-1.313-2.339L29.036,31.1a.639.639,0,1,0,.9.9l1.888-1.888A2.727,2.727,0,0,1,32.236,31.554Zm-.393-3.26a4.043,4.043,0,1,0,.9.9l3.235-3.235a8.588,8.588,0,1,1-.9-.9Zm12-6.712-2.4,2.4-.36-.081-.014,0-3.2-.721L37.059,19.6l6.44-6.441.718,3.18a.64.64,0,0,0,.483.483l3.18.718Z" transform="translate(-11.261 -11.25)"/></svg>