<svg xmlns="http://www.w3.org/2000/svg" width="43.277" height="36.096" viewBox="0 0 43.277 36.096"><g transform="translate(0)"><path d="M46.747,36.611l0-.006-6.513-14.84a5.668,5.668,0,0,0-1.787-2.257l-1.169-2.659a3.757,3.757,0,0,0-7.2,1.509v2.906a5.647,5.647,0,0,0-.731,2.781v1.414h-5.9V24.045a5.646,5.646,0,0,0-.731-2.781V18.358a3.757,3.757,0,0,0-7.2-1.51l-1.169,2.659a5.668,5.668,0,0,0-1.787,2.257L6.054,36.605l0,.006a9.343,9.343,0,1,0,17.4,4.748V31.118h5.9V41.36a9.344,9.344,0,1,0,17.4-4.748ZM30.629,24.24v-.194a4.4,4.4,0,0,1,6.929-3.6h0a4.394,4.394,0,0,1,1.5,1.832L39.73,23.8l0,0,4.349,9.911A9.328,9.328,0,0,0,30.628,36.64Zm3.211-8.359a2.475,2.475,0,0,1,2.267,1.481l.545,1.24a5.67,5.67,0,0,0-5.292,1.112V18.358A2.481,2.481,0,0,1,33.839,15.881ZM13.065,23.808l0-.005.668-1.524a4.4,4.4,0,0,1,8.433,1.768V36.64A9.328,9.328,0,0,0,8.717,33.718Zm3.627-6.447a2.479,2.479,0,0,1,4.748,1v1.356A5.67,5.67,0,0,0,16.148,18.6ZM14.1,49.412a8.066,8.066,0,1,1,8.066-8.066A8.066,8.066,0,0,1,14.1,49.412Zm9.346-19.571v-3.1h5.9v3.1ZM38.7,49.412a8.066,8.066,0,1,1,8.066-8.066A8.066,8.066,0,0,1,38.7,49.412Z" transform="translate(-4.761 -14.605)"/><path d="M85.237,68.237A7.153,7.153,0,1,0,92.39,75.39,7.153,7.153,0,0,0,85.237,68.237Zm0,13.028a5.874,5.874,0,1,1,5.874-5.875,5.874,5.874,0,0,1-5.874,5.875Z" transform="translate(-51.302 -48.647)"/><path d="M17.9,68.237a7.153,7.153,0,1,0,7.153,7.153A7.153,7.153,0,0,0,17.9,68.237Zm0,13.028a5.874,5.874,0,1,1,5.875-5.875A5.874,5.874,0,0,1,17.9,81.265Z" transform="translate(-8.563 -48.647)"/></g></svg>