<svg xmlns="http://www.w3.org/2000/svg" width="38.512" height="38.531" viewBox="0 0 38.512 38.531"><g transform="translate(0)"><path d="M59.3,284.055l-.2.107a2.726,2.726,0,0,0-3.238-.811l-.011.006-.467.251a3.547,3.547,0,0,0-4.061-.367l-2.515,1.368H45.463a4.833,4.833,0,0,1-2.092-.479l-.46-.223a7.9,7.9,0,0,0-8.219.8c-.011.008-.022.017-.032.026l-1.111.989a3.856,3.856,0,0,1-1.455.811l-.631-2.072a.5.5,0,0,0-.479-.354H25.608a.5.5,0,0,0-.5.561L26.9,299.361a.5.5,0,0,0,.5.44h8.062a.5.5,0,0,0,.479-.646l-1.059-3.476,3.3-2.085a1.985,1.985,0,0,1,1.448-.187l.031.007,6.71,1.236a8.683,8.683,0,0,0,5.366-.758.5.5,0,0,0,.061-.036L63.4,285.887a.5.5,0,0,0,.145-.671A3.186,3.186,0,0,0,59.3,284.055Zm-2.979.186a1.709,1.709,0,0,1,1.869.413l-4.4,2.374-.259.136a3.815,3.815,0,0,0-.6-1.1Zm-4.513-.124.012-.007a2.545,2.545,0,0,1,2.588.024l-2.238,1.2a3.8,3.8,0,0,0-1.429-.643ZM27.843,298.8,26.173,285.11h4.439L34.787,298.8Zm23.417-5.79a7.676,7.676,0,0,1-4.71.655l-6.694-1.233a2.984,2.984,0,0,0-2.175.295l-.023.014-3.079,1.946-2.193-7.193a4.86,4.86,0,0,0,1.828-1.022l1.1-.976a6.9,6.9,0,0,1,7.165-.689l.46.223a5.84,5.84,0,0,0,2.528.579h4.464a2.823,2.823,0,0,1,2.769,2.293l-3.235-.146a19.373,19.373,0,0,0-3.521.163.5.5,0,1,0,.137.991,18.347,18.347,0,0,1,3.338-.154l3.808.172h.023a.5.5,0,0,0,.5-.5c0-.081,0-.161-.008-.241l.522-.275,5.517-2.975a2.186,2.186,0,0,1,2.631.422Z" transform="translate(-25.107 -261.27)"/><path d="M76.974,432.873a1.575,1.575,0,1,0,1.575-1.575A1.575,1.575,0,0,0,76.974,432.873Zm1.575-.575a.575.575,0,1,1-.575.575.575.575,0,0,1,.575-.575Z" transform="translate(-72.648 -397.413)"/><path d="M218.131,30.436V28.787a3.8,3.8,0,1,0-7.6,0v1.649a3.8,3.8,0,1,0,7.6,0Zm-6.6,0V28.787a2.8,2.8,0,1,1,5.595,0v1.649a2.8,2.8,0,1,1-5.595,0Z" transform="translate(-195.07 -24.989)"/><path d="M79.4,148.748H91.641a.5.5,0,0,0,.5-.5V147.1h8.382a.5.5,0,0,0,.5-.5v-3.248a3.751,3.751,0,0,0-3.512-3.741.584.584,0,0,0-.515.285,2.3,2.3,0,0,1-3.623-.088.5.5,0,0,0-.415-.2,3.709,3.709,0,0,0-1.841.537,4.206,4.206,0,0,0-2.936-1.456.609.609,0,0,0-.516.3,2.694,2.694,0,0,1-4.251-.1.5.5,0,0,0-.415-.2,4.188,4.188,0,0,0-2.906,1.268c-.063.065-.123.132-.182.2a3.721,3.721,0,0,0-1.706-.536.585.585,0,0,0-.515.285,2.3,2.3,0,0,1-3.623-.088.5.5,0,0,0-.415-.2A3.749,3.749,0,0,0,70,143.351V146.6a.5.5,0,0,0,.5.5h8.4v1.149A.5.5,0,0,0,79.4,148.748Zm13.349-8.128a3.3,3.3,0,0,0,4.937.013,2.751,2.751,0,0,1,2.341,2.718V146.1H92.141v-3.21a4.186,4.186,0,0,0-.462-1.916A2.7,2.7,0,0,1,92.745,140.62Zm-9.96-.926a3.7,3.7,0,0,0,5.582.013,3.214,3.214,0,0,1,2.774,3.181v4.859H79.9v-4.859a3.233,3.233,0,0,1,2.888-3.194ZM71,146.1v-2.747a2.767,2.767,0,0,1,2.44-2.73,3.3,3.3,0,0,0,4.936.013,2.73,2.73,0,0,1,.977.345,4.192,4.192,0,0,0-.458,1.91v3.21Z" transform="translate(-66.256 -129.197)"/><path d="M337.9,55.09V53.647a3.387,3.387,0,1,0-6.774,0V55.09a3.387,3.387,0,1,0,6.774,0Zm-5.773,0V53.647a2.386,2.386,0,1,1,4.772,0V55.09a2.386,2.386,0,1,1-4.772,0Z" transform="translate(-305.608 -48.152)"/><path d="M106.42,55.09V53.647a3.387,3.387,0,1,0-6.774,0V55.09a3.387,3.387,0,1,0,6.774,0Zm-5.773,0V53.647a2.386,2.386,0,1,1,4.772,0V55.09a2.386,2.386,0,1,1-4.772,0Z" transform="translate(-93.429 -48.152)"/></g></svg>