<svg xmlns="http://www.w3.org/2000/svg" width="190.714" height="191" viewBox="0 0 190.714 191"><defs><style>.a{fill:#fff;}</style></defs><path class="a" d="M62.063,131.439a9.134,9.134,0,1,0,9.134-9.146,9.15,9.15,0,0,0-9.134,9.146Zm12.681,0A3.546,3.546,0,1,1,71.2,127.88,3.557,3.557,0,0,1,74.744,131.439ZM68.553,59.785a9.146,9.146,0,1,0,9.134,9.146A9.15,9.15,0,0,0,68.553,59.785Zm0,12.705A3.559,3.559,0,1,1,72.1,68.931,3.557,3.557,0,0,1,68.553,72.49Zm-3.1,41.758a9.146,9.146,0,1,0-9.134-9.146,9.15,9.15,0,0,0,9.134,9.146Zm0-12.7a3.559,3.559,0,1,1-3.546,3.559A3.557,3.557,0,0,1,65.458,101.543ZM150,132.616a9.146,9.146,0,1,0-9.134-9.146A9.15,9.15,0,0,0,150,132.616Zm0-12.7a3.559,3.559,0,1,1-3.546,3.559A3.557,3.557,0,0,1,150,119.911Zm-36.519,2.523a9.134,9.134,0,1,0,9.134-9.146A9.15,9.15,0,0,0,113.477,122.434Zm12.68,0a3.546,3.546,0,1,1-3.546-3.559A3.557,3.557,0,0,1,126.158,122.434ZM175.12,82.96A87.339,87.339,0,0,0,87.8,0,87.23,87.23,0,0,0,83.54,174.362,6.848,6.848,0,0,0,90.6,167.6V90.027h77.773a6.839,6.839,0,0,0,6.751-7.068ZM29.937,29.5A81.34,81.34,0,0,1,85.01,5.64V16.882A70.524,70.524,0,0,0,17.3,84.44H6.023A80.978,80.978,0,0,1,29.937,29.5ZM42.09,57.913a8.2,8.2,0,0,1-14.578,5.169,64.731,64.731,0,0,1,7.315-13.339,8.228,8.228,0,0,1,7.263,8.169ZM85.009,167.6a1.075,1.075,0,0,1-1.2,1.178A81.729,81.729,0,0,1,6.023,90.027H17.3a70.6,70.6,0,0,0,67.705,67.56ZM28.356,113.375a10.348,10.348,0,0,1,6.268-2.087,10.512,10.512,0,0,1,5.214,19.622A65,65,0,0,1,28.356,113.375ZM85.009,151.99a64.8,64.8,0,0,1-41.133-17.04A16.1,16.1,0,0,0,34.624,105.7a15.9,15.9,0,0,0-8.358,2.344A64.315,64.315,0,0,1,22.9,90.027H85.009ZM90.6,84.44V51.892a2.794,2.794,0,1,0-5.587,0V84.44H22.9a64.38,64.38,0,0,1,2.6-15.579A13.8,13.8,0,1,0,38.608,44.936a64.914,64.914,0,0,1,46.4-22.463V38.855a2.794,2.794,0,1,0,5.587,0V22.473a64.752,64.752,0,0,1,16.831,2.961,13.1,13.1,0,1,0,22.752,12.7,64.657,64.657,0,0,1,22.531,46.3H90.6Zm20.062-51.5A7.509,7.509,0,0,1,113,27.482a64.976,64.976,0,0,1,12.519,7,7.506,7.506,0,0,1-14.857-1.538ZM90.6,16.882V5.64a81.738,81.738,0,0,1,78.943,77.59,1.075,1.075,0,0,1-1.17,1.21H158.307A70.542,70.542,0,0,0,90.6,16.882Zm94.932,84.138H152.781a2.794,2.794,0,1,0,0,5.587h15.883a64.693,64.693,0,0,1-22.983,46.7,15.148,15.148,0,1,0-26.816,13.581,64.928,64.928,0,0,1-12.347,1.717V107.784a1.174,1.174,0,0,1,1.169-1.177h32.057a2.794,2.794,0,1,0,0-5.587H107.686a6.768,6.768,0,0,0-6.756,6.764v77.643a5.623,5.623,0,0,0,5.73,5.571,87.328,87.328,0,0,0,84.435-84.241A5.618,5.618,0,0,0,185.529,101.02Zm-54.112,47.806A9.587,9.587,0,0,1,140.874,157a64.9,64.9,0,0,1-16.2,8.21,9.592,9.592,0,0,1,6.744-16.384Zm30.169,12.721a81.583,81.583,0,0,1-55.069,23.864V174.194c35.974-1.315,66.349-30.645,67.737-67.587h11.255a81.219,81.219,0,0,1-23.923,54.94Zm-39.02-91.79A9.134,9.134,0,1,0,131.7,60.61,9.15,9.15,0,0,0,122.567,69.757Zm12.681,0A3.546,3.546,0,1,1,131.7,66.2,3.557,3.557,0,0,1,135.247,69.757ZM68.553,32.567a9.146,9.146,0,1,0,9.134,9.146A9.15,9.15,0,0,0,68.553,32.567Zm0,12.7A3.559,3.559,0,1,1,72.1,41.713,3.557,3.557,0,0,1,68.553,45.272Zm36.262,14.513a9.146,9.146,0,1,0,9.134,9.146A9.15,9.15,0,0,0,104.815,59.785Zm0,12.705a3.559,3.559,0,1,1,3.546-3.559A3.557,3.557,0,0,1,104.815,72.49Z" transform="translate(-0.383 0)"/></svg>