<svg xmlns="http://www.w3.org/2000/svg" width="110.834" height="111" viewBox="0 0 110.834 111"><defs><style>.a{fill:#d8422d;}</style></defs><g transform="translate(-0.383)"><path class="a" d="M36.229,76.386a5.308,5.308,0,1,0,5.308-5.315A5.318,5.318,0,0,0,36.229,76.386Zm7.369,0a2.061,2.061,0,1,1-2.061-2.068A2.067,2.067,0,0,1,43.6,76.386ZM40,34.744a5.315,5.315,0,1,0,5.308,5.315A5.318,5.318,0,0,0,40,34.744Zm0,7.384a2.068,2.068,0,1,1,2.061-2.068A2.067,2.067,0,0,1,40,42.128ZM38.2,66.4a5.315,5.315,0,1,0-5.308-5.315A5.318,5.318,0,0,0,38.2,66.4Zm0-7.383A2.068,2.068,0,1,1,36.14,61.08,2.067,2.067,0,0,1,38.2,59.012ZM87.331,77.07a5.315,5.315,0,1,0-5.308-5.315A5.318,5.318,0,0,0,87.331,77.07Zm0-7.383a2.068,2.068,0,1,1-2.061,2.068A2.067,2.067,0,0,1,87.331,69.687ZM66.108,71.153a5.308,5.308,0,1,0,5.308-5.315A5.318,5.318,0,0,0,66.108,71.153Zm7.369,0a2.061,2.061,0,1,1-2.061-2.068A2.067,2.067,0,0,1,73.477,71.153Zm28.455-22.94A50.757,50.757,0,0,0,51.187,0,50.694,50.694,0,0,0,48.71,101.331a3.98,3.98,0,0,0,4.1-3.928V52.32h45.2a3.974,3.974,0,0,0,3.923-4.107ZM17.559,17.146A47.271,47.271,0,0,1,49.564,3.277V9.811A40.985,40.985,0,0,0,10.217,49.073H3.661a47.061,47.061,0,0,1,13.9-31.927Zm7.062,16.511a4.763,4.763,0,0,1-8.472,3A37.619,37.619,0,0,1,20.4,28.909,4.782,4.782,0,0,1,24.621,33.656ZM49.564,97.4a.625.625,0,0,1-.7.685A47.5,47.5,0,0,1,3.661,52.32h6.556A41.026,41.026,0,0,0,49.564,91.582ZM16.64,65.888a6.014,6.014,0,0,1,3.643-1.213,6.109,6.109,0,0,1,3.03,11.4A37.775,37.775,0,0,1,16.64,65.888ZM49.564,88.329a37.659,37.659,0,0,1-23.9-9.9,9.355,9.355,0,0,0-5.377-17,9.24,9.24,0,0,0-4.857,1.362A37.377,37.377,0,0,1,13.466,52.32h36.1Zm3.247-39.257V30.157a1.624,1.624,0,0,0-3.247,0V49.073h-36.1a37.415,37.415,0,0,1,1.51-9.054,8.02,8.02,0,1,0,7.622-13.9A37.725,37.725,0,0,1,49.564,13.06v9.52a1.624,1.624,0,1,0,3.247,0V13.06a37.631,37.631,0,0,1,9.781,1.721,7.612,7.612,0,1,0,13.222,7.381,37.576,37.576,0,0,1,13.094,26.91h-36.1ZM64.47,19.143a4.364,4.364,0,0,1,1.359-3.172A37.76,37.76,0,0,1,73.1,20.037a4.362,4.362,0,0,1-8.634-.894ZM52.811,9.811V3.278A47.5,47.5,0,0,1,98.688,48.369a.625.625,0,0,1-.68.7H92.161A41,41,0,0,0,52.811,9.811Zm55.17,48.9H88.949a1.624,1.624,0,1,0,0,3.247h9.23A37.6,37.6,0,0,1,84.823,89.094a8.8,8.8,0,1,0-15.584,7.893,37.732,37.732,0,0,1-7.176,1V62.639a.682.682,0,0,1,.679-.684h18.63a1.624,1.624,0,0,0,0-3.247H62.742a3.933,3.933,0,0,0-3.926,3.931v45.122A3.268,3.268,0,0,0,62.146,111a50.751,50.751,0,0,0,49.07-48.957A3.265,3.265,0,0,0,107.981,58.708ZM76.534,86.491a5.571,5.571,0,0,1,5.5,4.75,37.716,37.716,0,0,1-9.415,4.771,5.575,5.575,0,0,1,3.919-9.521Zm17.533,7.393a47.412,47.412,0,0,1-32,13.869v-6.519a41.135,41.135,0,0,0,39.365-39.278h6.541a47.2,47.2,0,0,1-13.9,31.928ZM71.39,40.539A5.308,5.308,0,1,0,76.7,35.224,5.318,5.318,0,0,0,71.39,40.539Zm7.369,0A2.061,2.061,0,1,1,76.7,38.471,2.067,2.067,0,0,1,78.76,40.539ZM40,18.926a5.315,5.315,0,1,0,5.308,5.315A5.318,5.318,0,0,0,40,18.926Zm0,7.383a2.068,2.068,0,1,1,2.061-2.068A2.067,2.067,0,0,1,40,26.31Zm21.074,8.434a5.315,5.315,0,1,0,5.308,5.315A5.318,5.318,0,0,0,61.074,34.744Zm0,7.384a2.068,2.068,0,1,1,2.061-2.068A2.067,2.067,0,0,1,61.074,42.128Z"/></g></svg>