<svg xmlns="http://www.w3.org/2000/svg" width="133.8" height="134" viewBox="0 0 133.8 134"><defs><style>.a{fill:#d8422d;}</style></defs><g transform="translate(-0.383)"><path class="a" d="M43.656,92.214A6.408,6.408,0,1,0,50.064,85.8,6.42,6.42,0,0,0,43.656,92.214Zm8.9,0a2.488,2.488,0,1,1-2.488-2.5A2.5,2.5,0,0,1,52.552,92.214ZM48.209,41.943a6.417,6.417,0,1,0,6.408,6.417A6.42,6.42,0,0,0,48.209,41.943Zm0,8.914a2.5,2.5,0,1,1,2.488-2.5A2.5,2.5,0,0,1,48.209,50.857Zm-2.171,29.3a6.417,6.417,0,1,0-6.408-6.417,6.42,6.42,0,0,0,6.408,6.417Zm0-8.913a2.5,2.5,0,1,1-2.488,2.5A2.5,2.5,0,0,1,46.038,71.24Zm59.31,21.8a6.417,6.417,0,1,0-6.408-6.417A6.42,6.42,0,0,0,105.347,93.04Zm0-8.913a2.5,2.5,0,1,1-2.488,2.5A2.5,2.5,0,0,1,105.347,84.126ZM79.727,85.9a6.408,6.408,0,1,0,6.408-6.417A6.42,6.42,0,0,0,79.727,85.9Zm8.9,0a2.488,2.488,0,1,1-2.488-2.5A2.5,2.5,0,0,1,88.623,85.9ZM122.973,58.2A61.274,61.274,0,0,0,61.714,0a61.2,61.2,0,0,0-2.991,122.327,4.8,4.8,0,0,0,4.951-4.742V63.161h54.563a4.8,4.8,0,0,0,4.736-4.958ZM21.118,20.7A57.065,57.065,0,0,1,59.755,3.957v7.888a49.478,49.478,0,0,0-47.5,47.4H4.34A56.812,56.812,0,0,1,21.118,20.7ZM29.643,40.63a5.75,5.75,0,0,1-10.228,3.627A45.414,45.414,0,0,1,24.547,34.9,5.772,5.772,0,0,1,29.643,40.63Zm30.111,76.955a.754.754,0,0,1-.843.827A57.339,57.339,0,0,1,4.34,63.161h7.915a49.527,49.527,0,0,0,47.5,47.4ZM20.008,79.541a7.26,7.26,0,0,1,4.4-1.464,7.375,7.375,0,0,1,3.658,13.766A45.6,45.6,0,0,1,20.008,79.541Zm39.746,27.091A45.462,45.462,0,0,1,30.9,94.677a11.293,11.293,0,0,0-6.492-20.52A11.155,11.155,0,0,0,18.542,75.8a45.122,45.122,0,0,1-2.365-12.641H59.754Zm3.92-47.391V36.406a1.96,1.96,0,0,0-3.92,0V59.241H16.177A45.167,45.167,0,0,1,18,48.311a9.682,9.682,0,1,0,9.2-16.785A45.542,45.542,0,0,1,59.754,15.767V27.26a1.96,1.96,0,1,0,3.92,0V15.767a45.429,45.429,0,0,1,11.808,2.077,9.189,9.189,0,1,0,15.962,8.911A45.362,45.362,0,0,1,107.251,59.24H63.674ZM77.749,23.109a5.268,5.268,0,0,1,1.64-3.829,45.585,45.585,0,0,1,8.783,4.908,5.266,5.266,0,0,1-10.423-1.079ZM63.674,11.844V3.957a57.345,57.345,0,0,1,55.384,54.435.754.754,0,0,1-.821.849h-7.059a49.491,49.491,0,0,0-47.5-47.4Zm66.6,59.028H107.3a1.96,1.96,0,0,0,0,3.92h11.143a45.387,45.387,0,0,1-16.124,32.762,10.628,10.628,0,1,0-18.813,9.528,45.55,45.55,0,0,1-8.663,1.2V75.618a.824.824,0,0,1,.82-.826h22.49a1.96,1.96,0,0,0,0-3.92H75.663a4.748,4.748,0,0,0-4.74,4.745V130.09A3.945,3.945,0,0,0,74.943,134a61.267,61.267,0,0,0,59.237-59.1A3.941,3.941,0,0,0,130.276,70.872Zm-37.963,33.54a6.726,6.726,0,0,1,6.635,5.734,45.531,45.531,0,0,1-11.366,5.76,6.73,6.73,0,0,1,4.731-11.494Zm21.166,8.925a57.236,57.236,0,0,1-38.635,16.742v-7.87c25.238-.922,46.548-21.5,47.522-47.417h7.9a56.981,56.981,0,0,1-16.784,38.544ZM86.1,48.939a6.408,6.408,0,1,0,6.408-6.417A6.42,6.42,0,0,0,86.1,48.939Zm8.9,0a2.488,2.488,0,1,1-2.488-2.5A2.5,2.5,0,0,1,95,48.939ZM48.209,22.848a6.417,6.417,0,1,0,6.408,6.417A6.42,6.42,0,0,0,48.209,22.848Zm0,8.913a2.5,2.5,0,1,1,2.488-2.5A2.5,2.5,0,0,1,48.209,31.762Zm25.44,10.182a6.417,6.417,0,1,0,6.408,6.417A6.42,6.42,0,0,0,73.649,41.943Zm0,8.914a2.5,2.5,0,1,1,2.488-2.5A2.5,2.5,0,0,1,73.649,50.857Z"/></g></svg>