<svg xmlns="http://www.w3.org/2000/svg" width="115.5" height="115.5" viewBox="0 0 115.5 115.5"><defs><style>.a{fill:#d8422d;}</style></defs><g transform="translate(-0.001 0)"><g transform="translate(0.001 0)"><g transform="translate(0)"><path class="a" d="M114.83.651a2.255,2.255,0,0,0-2.342-.519L18.79,33.54A12.334,12.334,0,0,0,.94,48.774,120.962,120.962,0,0,0,27.291,88.21a120.956,120.956,0,0,0,39.436,26.35A12.332,12.332,0,0,0,82.782,98.3l32.6-95.313A2.256,2.256,0,0,0,114.83.651ZM32.977,33.271l9.93-3.54a5.749,5.749,0,1,1-9.93,3.54Zm45.7,72.884a7.836,7.836,0,0,1-10.228,4.236A116.279,116.279,0,0,1,5.109,47.047a7.828,7.828,0,0,1,14.464-5.991A100.884,100.884,0,0,0,41.551,73.95,100.888,100.888,0,0,0,74.444,95.928,7.836,7.836,0,0,1,78.681,106.155ZM98.723,37.747a5.817,5.817,0,0,1-.612-.043,5.75,5.75,0,1,1,4.159-10.325Zm5.046-14.755A10.26,10.26,0,1,0,97.224,42.13L92.74,55.241l-5.156-3.957a2.256,2.256,0,1,0-2.746,3.579L91.2,59.746l-11.661,34.1a12.289,12.289,0,0,0-3.366-2.085,96.243,96.243,0,0,1-52.43-52.43,12.33,12.33,0,0,0-1.265-2.315l6.041-2.154a10.272,10.272,0,0,0,8.856,8.974,10.405,10.405,0,0,0,1.361.09A10.259,10.259,0,0,0,47.36,28.143l28.042-10,1.063,2.566a2.256,2.256,0,1,0,4.168-1.727l-.976-2.356L109.6,5.953Z" transform="translate(-0.001 0)"/></g></g><g transform="translate(20.201 59.466)"><path class="a" d="M93.709,264.662l-.033-.05a2.26,2.26,0,1,0,.033.05Z" transform="translate(-89.546 -263.609)"/></g><g transform="translate(10.719 41.533)"><path class="a" d="M57.728,197.493A106.769,106.769,0,0,1,51.855,185.5a2.256,2.256,0,0,0-4.168,1.727,111.264,111.264,0,0,0,6.122,12.5,2.256,2.256,0,1,0,3.919-2.235Z" transform="translate(-47.515 -184.111)"/></g><g transform="translate(58.992 28.783)"><path class="a" d="M273.1,127.682a10.262,10.262,0,1,0,8.834,11.513A10.337,10.337,0,0,0,273.1,127.682Zm4.361,10.924a5.761,5.761,0,0,1-5.691,5,5.824,5.824,0,0,1-.761-.05,5.75,5.75,0,0,1,.741-11.451,5.823,5.823,0,0,1,.761.05A5.757,5.757,0,0,1,277.466,138.606Z" transform="translate(-261.502 -127.593)"/></g><g transform="translate(58.404 56.843)"><path class="a" d="M270.5,252.069a10.253,10.253,0,0,0-11.513,8.834,10.262,10.262,0,0,0,8.834,11.514,10.262,10.262,0,0,0,2.679-20.348Zm4.361,10.924a5.761,5.761,0,0,1-5.691,5,5.854,5.854,0,0,1-.76-.05,5.75,5.75,0,0,1,.74-11.452,5.824,5.824,0,0,1,.761.05A5.757,5.757,0,0,1,274.86,262.993Z" transform="translate(-258.896 -251.98)"/></g><g transform="translate(45.644 46.654)"><path class="a" d="M211.816,207.744l-6.934-.913a2.256,2.256,0,0,0-.589,4.473l6.934.913a2.256,2.256,0,0,0,.589-4.473Z" transform="translate(-202.332 -206.811)"/></g><g transform="translate(46.508 57.62)"><path class="a" d="M211.266,262.037l-.612-4.652a2.256,2.256,0,0,0-4.473.589l.612,4.652a2.256,2.256,0,1,0,4.473-.589Z" transform="translate(-206.161 -255.423)"/></g></g></svg>