<svg xmlns="http://www.w3.org/2000/svg" width="42" height="42" viewBox="0 0 42 42"><defs><style>.a{fill:#d8422d;}.b{fill:#fff;}</style></defs><g transform="translate(-1307 -609)"><circle class="a" cx="21" cy="21" r="21" transform="translate(1307 609)"/><path class="b" d="M11.5,0A11.5,11.5,0,1,0,23,11.5,11.534,11.534,0,0,0,11.5,0Zm0,2.875A8.625,8.625,0,1,1,2.875,11.5,8.613,8.613,0,0,1,11.5,2.875ZM10.063,5.75v6.382l.46.374,1.438,1.438.977,1.093,2.07-2.07-1.093-.978-.977-.977v-5.2H10.062Z" transform="translate(1317 619)"/></g></svg>