<svg xmlns="http://www.w3.org/2000/svg" xmlns:xlink="http://www.w3.org/1999/xlink" width="222" height="139.444" viewBox="0 0 222 139.444"><defs><style>.a{fill:none;}.b{clip-path:url(#a);}.c{fill:#d8412c;}.d{fill:#fff;}.e{fill:#d5331f;}.f{fill:#575756;}.g{fill:#80a743;}.h{fill:#ed9b27;}</style><clipPath id="a"><rect class="a" width="222" height="139.444"/></clipPath></defs><g transform="translate(-310.035 -127.559)"><g class="b" transform="translate(310.035 127.559)"><path class="c" d="M528.808,319.7c-.211-.452-.421-1.826-1.571-.793l-1.821.738a.4.4,0,0,1-.189.169l.189-.169L523,319.535c-1.212-.819-2.581-.472-3.9-.527l-.026.008.019-.022c0,.005.005.008.007.014l.027-.053h0l-.054,0c-.374-.842-1.161-.551-1.816-.622-.219-1.139-1.986-.578-2.113-1.844,3.966-2.379,3.966-2.379,5.778-1.8,1.211.949,2.12.81,2.642-.731-.252-1.725-.416-1.977-.872-1.678-2.613,1.709-5.344-.964-7.924.313-.221-1.266-.769-1.894-2.068-1.058a.239.239,0,0,1-.086.148l.086-.148c-.855-.661-2.594-1.339-.6-2.4,1.127-.6.223-2.156,1.605-2.338.347-.046.853-.328.519-.871a1.051,1.051,0,0,0-1.319-.524,18.617,18.617,0,0,1-11.956-.12c1.47.359.548-1.261,1.6-1.556,2.365-.661.678-2.372.009-2.612-3.534-1.269-6.623-4.49-10.948-2.718a10.207,10.207,0,0,1-2.78.316c-1.9-1.613-3.8.538-5.7-.01-.35-.258-.535-.859-1.144-.572a1.247,1.247,0,0,0,.026-.341c-.372-.812-1.124-.926-1.887-1.022-.333-.03-.67-.029-1.006-.034a2.005,2.005,0,0,0,.838-.493l-.062-.058c1.142-.5.145-1.247.211-1.871-.468-.664-.942-.014-1.413-.007h0a1.129,1.129,0,0,0-1.355-.533l-3.79.107c0-2.315,2.489-1.454,3.763-2.792-1.74,0-3.1.105-4.437-.027-1.693-.168-1.764.859-1.753,2.048-1.689.187-3.287.785-5.064.661-1.953-.136-.008.739-.163,1.116a28.5,28.5,0,0,0-7.8.517,106.463,106.463,0,0,1-21.634,2.656c-9.025.2-17.831,2.446-26.744,3.722-2.466.353-4.766,1.71-7.358,1.209-1.817,1.338-3.06,3.328-3.262,3.174a.722.722,0,0,1-.038.14l-3.11.062c.887-1,2.243-.564,3.3-.686l.28-.585c.172-.865.131-1.1.3-1.96a177.01,177.01,0,0,0-17.731,3.308c-1.989.219-3.871.677-5.207,2.346a.483.483,0,0,0-.436.25c-1.674.483-3.5.286-5.09,1.152a4.666,4.666,0,0,0-2.556.686c-1.738.137-3.583-.038-4.778,1.66l-1.538.124c-1.112-1.328-1.787-.41-2.743.611H361.9q.006.638.012,1.276l-.028.005c0,.009.01.015.014.024-.731.273-1.569-1.068-2.166.111-.085.167.557.7.862,1.066a52.765,52.765,0,0,0-8.768,2.157,1.954,1.954,0,0,0,.2.423c.054.068.192.068.293.1q.033.57.064,1.138l-1.217.673c-.9-.029-1.838-.113-1.981,1.159-3.722,1.363-7.782,1.822-11.475,3.819a5.82,5.82,0,0,0,5.336.355,37.57,37.57,0,0,1,12.511-1.672q-.015.314-.019.63c-.166.214-1.043.094-.411.656.411.365,1.243-.042,1.616.63l-2.954.8h0l-3.281-.031.128.122a.422.422,0,0,1-.128-.122,4.948,4.948,0,0,0-4.428,1.919c-3.295.573-6.593,1.133-9.424,3.111-3.367-1.592-5.915,1.014-8.93,1.347.91,1.54,2.541-.8,3.184,1.1-1.359.487-2.695,1.053-4.079,1.449-3.873,1.109-6.59,4.381-10.442,5.508-1.184.09-2.49-.173-3.3,1.064.882.847,1.882-1.2,2.68.224-.833.885-.639,1.3.551,1.047,2.957-.627,5.876-1.49,8.858-1.93,3.151-.465,6.239-1.76,9.473-1.486l.172.812-6.352,2.25c-.46-.142-.9-.622-1.4-.136-.516.5.1.934.134,1.4-2.331,1.833-5.812,2.233-7.565,5.842,9.738-2,18.8-3.959,27.933-5.563,6.472-1.137,12.763-3.217,19.288-4.185l.684.686h0l-.768.366c.877-.243,1.4,2.185,2.493.328q.106-.334.211-.67h0c1.486-.618,2.878.971,4.371.186.928-.409,2.112.15,2.905-.77,1.914.189,3.612-.6,5.359-1.173,1.069-.186,2.225-.014,3.157-.765h0l1.46-.61h0c.792,1.1,1.545.174,2.311-.044,5.17-1.034,10.337-2.083,15.511-3.1a183.252,183.252,0,0,1,24.261-3.2c.819,1.462,1.678,1.541,2.581.073,5.653.184,11.314,1.161,16.951-.172l1.93.11c.672,1.931,1.905,1.42,3.179.73a6.168,6.168,0,0,0,3.122-.838,3.122,3.122,0,0,0,.932.056c7.874-1.982,16.034-.869,24.014-2.258,3.308-.576,6.781-.1,9.812-2.065.83-.4,1.741,2.473,2.519-.062-.234-1.058.855-1.21,1.256-1.832l3.062-.161.678.668a2.835,2.835,0,0,0-.307.442c-.029.062.062.26.1.261,2.149.044,4.281-.557,5.3-2.38,1.086-1.944-.8-3.21-2.111-4.377a7.053,7.053,0,0,0-1.658-.882,1.081,1.081,0,0,1-.5-1.582c.27-.592.826-.512,1.33-.241a8.468,8.468,0,0,0,4,.621c3.1.069,6.073.187,8.994,1.8.948.525,2.62,3.5,4.467.686.568.693,1.181.96,1.9.2h0c1.317-.365,2.544.277,3.823.338l.984.279c1.137.516,2.367,1.379,2.8-.739v0c.328-.152,1.185.185.829-.577M331.741,333.666c.306-.268.611-.537,1.063-.325l-1.063.325m26.543-10.118c-.013.012-.027.02-.039.032a4.782,4.782,0,0,1-1.168.181,9.468,9.468,0,0,1,1.079-.21,2.688,2.688,0,0,1,1.973-.472,2.615,2.615,0,0,0-1.845.469m3.056-.673a2.688,2.688,0,0,1-.612.151,1.806,1.806,0,0,0,.353-.1c-.226-.355.453-.071.259-.048m4.344-.68c.871-.462,1.662-1.531,3.232-.245l-3.232.245m3.793-.882a2.377,2.377,0,0,1,2.783-.96c-.644.938-1.459,1.148-2.783.96m7.722-10.652a6.4,6.4,0,0,0-1.283.235c-.158.051-.319.09-.48.134l-.019-.019a6.384,6.384,0,0,0,1.645-.7,1.067,1.067,0,0,0,.166-.718c.465.253.929.749,1.394.944-.473.045-.949.082-1.423.125m4.28,27.889-.76-.047c.624-1.076,1.741-.362,2.566-.707-.12,1.407-1.233.434-1.807.754m11.093-31.468c-.115.35-.338.29-.72.115.32-.138.644-.267.974-.379a1.878,1.878,0,0,0-.254.264m55.823,23.767v0a.821.821,0,0,0-.106-.124,15.859,15.859,0,0,0-1.943-.8c1.054.034,2.033-.025,2.967-.073a3.943,3.943,0,0,0-.918,1m4.405-.561a1.644,1.644,0,0,0-1.358.081c-.059.028-.112.063-.169.093a2.513,2.513,0,0,0-.6-.659,10.513,10.513,0,0,1,2.358.19q-.118.139-.228.294m2.537-32.793c-.678,1.092-1.886.353-3.094,1.358.924-2.066,1.926-2.026,3.094-1.358.006-.009.012-.016.018-.025l.015.044-.033-.019m17.919-2.29c-1.247,1.465-2.76.821-4.239.638l4.239-.638m-5.55.437c-1.067,1.258-2.047,1.336-3.861.948l3.861-.948m7.183,3.143c.084.852-.7.941-1.157,1.32-.907-.411-1.5-1.441-2.654-1.364h0l-2.537.09-2.47-.105a9,9,0,0,1-4.419.664.953.953,0,0,1-1.26.556c-.118-.037-.277-.332-.235-.427.305-.688.919-.734,1.565-.675l4.35-.557,3.034-.249c1.322-1.192,2.6.045,3.9.067-.37-.929-.08-1.351.935-1.227,1.283.157,1.541.82.946,1.907m5.667,1.194c-.78.071-1.569.662-2.386-.079.542-1.577,1.954-1.042,3.051-1.243l-.665,1.323m27.152,13.664c-2.867.595-5.75,1.112-9.447,1.8,2.8-3.64,5.6-4.488,9-3.56.471.128,1.155.122,1.08.841-.035.335-.363.859-.638.916" transform="translate(-311.705 -216.875)"/><path class="c" d="M688.684,299.925c.8-1.16,1.81-.214,2.7-.329.48-.062,2.083.05,1.051-1.415a1.714,1.714,0,0,1-1.527.014,1.6,1.6,0,0,0,.331-.258c.328-.8,1.587-.084,1.9-1.278-1.987.476-4-.681-5.762.726l-.587,1.174-.882,1.08c.867.661,1.827.416,2.775.286" transform="translate(-515.383 -219.942)"/><path class="c" d="M708.6,294.173c.27.03.642-.057.4-.62a1.921,1.921,0,0,0-.677-.346c-.335-.033-.616.235-.437.572a1.013,1.013,0,0,0,.713.395" transform="translate(-527.359 -218.055)"/><path class="c" d="M428.79,330.369l2.122-.359c-.73-1.007-1.377-1.284-2.207-.554-.8.425-2.019-.3-2.521.921a2.028,2.028,0,0,0,2.606-.008" transform="translate(-373.49 -237.635)"/><path class="c" d="M426.063,331.893l.049.052.006-.012c-.019-.015-.037-.025-.055-.04" transform="translate(-373.424 -239.191)"/><path class="c" d="M422.623,332.043l-2.821.63c1.193.45,2.4.912,2.821-.63" transform="translate(-370.003 -239.273)"/><path class="c" d="M426.04,331.9c-.006.024-.014.044-.02.066l.069-.015-.049-.051" transform="translate(-373.4 -239.193)"/><path class="c" d="M370.979,359.181l-2.493.345a1.72,1.72,0,0,0,2.493-.345" transform="translate(-341.968 -254.099)"/><path class="c" d="M742.753,369.916c.964.632,1.774,1.018,3.054-.02-1.27-.639-2.107-.812-3.054.02" transform="translate(-546.439 -259.657)"/><path class="c" d="M539.658,386.641c-.945.146-2.123-.421-2.91,1.007l2.867-.4a2.742,2.742,0,0,0,2.849-1,2.942,2.942,0,0,0-2.806.4" transform="translate(-433.893 -268.781)"/><path class="d" d="M522.3,162.8a32.261,32.261,0,0,0,5.576,2.616,74.455,74.455,0,0,0,27.827,5.016,51.937,51.937,0,0,0,14.651-1.966c4.709-1.469,8.928-3.74,12.024-7.732a14.062,14.062,0,0,0,2.953-11.64,12.989,12.989,0,0,0-3.26-6.384A18.871,18.871,0,0,0,571,136.959a36.028,36.028,0,0,0-13.815.5,55.534,55.534,0,0,0-9.213,2.762,87.791,87.791,0,0,0-8.145,3.812c-4.379,2.265-8.677,4.687-13.047,6.971-6.21,3.246-12.412,6.513-18.7,9.612a122.012,122.012,0,0,1-20.591,8.288,33.286,33.286,0,0,1-10.754,1.494,15.693,15.693,0,0,1-10.143-4.142,9.271,9.271,0,0,1-.814-.974l.205-.245a8.788,8.788,0,0,1,1.038.7,15.192,15.192,0,0,0,7.879,3.519,23.533,23.533,0,0,0,8.7-.6c6.017-1.217,11.645-3.6,17.223-6.075,2.947-1.31,5.874-2.671,8.755-4.12,3.94-1.982,7.967-3.785,11.868-5.848q5.816-3.076,11.688-6.045c4.3-2.18,8.567-4.431,12.953-6.42a68.1,68.1,0,0,1,8.086-2.809c1.724-.533,3.518-.836,5.278-1.252a32.1,32.1,0,0,1,9.046-.521,20.856,20.856,0,0,1,13.188,5.019,14.446,14.446,0,0,1,5.084,13.122,16.729,16.729,0,0,1-6.622,11.325,27.577,27.577,0,0,1-11.846,5.414,68.815,68.815,0,0,1-26.019.087,70.37,70.37,0,0,1-18.068-5.8,11.6,11.6,0,0,1-2.51-1.619Z" transform="translate(-395.124 -131.883)"/><path class="d" d="M504.427,184.365c-5.55,2.53-11.188,4.875-16.678,7.527-5.34,2.578-10.553,5.422-15.793,8.2a59.673,59.673,0,0,1-12.195,5.147c-4.03,1.1-8.129,1.545-12.241.308a14.088,14.088,0,0,1-8.492-7.072,17.146,17.146,0,0,1-2.061-5.974,14.353,14.353,0,0,1,3.126-11.043,19.07,19.07,0,0,1,8.161-5.806,40.813,40.813,0,0,1,14.491-2.73,112.782,112.782,0,0,1,21.418,1.425,41.21,41.21,0,0,1,9.628,2.433,10.373,10.373,0,0,0,1.282.34,1.307,1.307,0,0,1-1.411.289,78.272,78.272,0,0,0-15.73-2.757,123.711,123.711,0,0,0-13.76-.469,42.763,42.763,0,0,0-15.4,2.783,18.264,18.264,0,0,0-7.175,4.9c-3.849,4.436-4.453,9.843-1.841,15.225a13.4,13.4,0,0,0,7.049,6.963,16.911,16.911,0,0,0,9.22.923,47.605,47.605,0,0,0,14.6-5.172c6.72-3.543,13.393-7.186,20.2-10.564,5.1-2.532,10.311-4.856,15.578-7.014a104.2,104.2,0,0,1,16.978-5.436,53.4,53.4,0,0,1,11.988-1.43,18.923,18.923,0,0,1,9.158,2.22,7.028,7.028,0,0,1,3.233,3.368,1.819,1.819,0,0,1-.463-.259c-2.987-3.136-6.824-4.152-10.961-4.291a48.535,48.535,0,0,0-12.727,1.564,129.235,129.235,0,0,0-15.122,4.79c-.6.222-3.251,1.237-4.066,1.608" transform="translate(-379.307 -152.317)"/><path class="d" d="M580.648,312.69a4.415,4.415,0,0,0-5.243-.588,6.5,6.5,0,0,0-3.551,4.167c-1.748,5.573-2.179,11.339-2.459,17.1-.1,2.079-.906,4.355.974,7.144.376-3.37.69-5.961.945-8.557a4.766,4.766,0,0,1,2.365-4.049,20.81,20.81,0,0,0,7.977-10.308,4.149,4.149,0,0,0-1.008-4.911m-1.347,4.737a29.777,29.777,0,0,1-6.912,9.343,22.772,22.772,0,0,1,2.681-11.545c.717-1.272,2.052-2.415,3.609-1.655,1.683.822,1.247,2.5.622,3.856" transform="translate(-451.589 -228.057)"/><path class="d" d="M474.582,328.555a.48.48,0,0,0-.726-.068c-2.407,3.342-2.575,7.42-3.622,11.2-.362,1.308-.489,2.194-2.3,2.179-3.691-.03-4.417,3.054-5.056,5.781a5.3,5.3,0,0,0,2.877,6.335c2.174,1.137,5.086-.109,5.2-2.235a93.015,93.015,0,0,1,3.787-20.923c.247-.846.616-1.559-.161-2.27M469.4,345.87c-.044.833-.1,1.665-.15,2.5l.1.011c-.1.72-.2,1.439-.292,2.159-.115.919.612,2.444-1.044,2.373a2.93,2.93,0,0,1-2.969-2.344,8.382,8.382,0,0,1,1.208-5.7,2.191,2.191,0,0,1,2.292-1.313c1.313.284.9,1.417.85,2.315" transform="translate(-393.432 -237.257)"/><path class="d" d="M679.957,330.612c-1.287-.775-2,.737-2.776,1.494-2.076,2.029-3.218,4.627-4.321,7.258-.532,1.268-.947,2.513.44,3.324a2.732,2.732,0,0,0,3.649-.882c.957-1.183,1.724-2.519,3.036-4.475a12.325,12.325,0,0,0,1.883,6.908c.207-3.723.318-6.862.578-9.989.163-1.96-1.241-2.886-2.487-3.637m-4.756,9.671a15.589,15.589,0,0,1,3.907-7.139,12.76,12.76,0,0,1-3.907,7.139" transform="translate(-507.982 -238.374)"/><path class="d" d="M506.444,356.826a3.539,3.539,0,0,0-2.22-3.134c-1.3-.719-2.09.435-2.892,1.247A21.074,21.074,0,0,0,497,362.153c-.481,1.2-1.26,2.436.168,3.321a2.836,2.836,0,0,0,3.915-.794c.941-1.18,1.714-2.493,2.925-4.288.36,2.532.174,4.56,2.425,6.06,0-3.209-.019-6.418.008-9.626m-7.306,7.05c.451-3.492,2.223-5.38,3.721-7.4-.227,2.65-1.6,4.732-3.721,7.4" transform="translate(-411.825 -250.978)"/><path class="d" d="M609.856,332.91a.881.881,0,0,1,.854.721c.108.631-.26,1.025-.827.951a1.19,1.19,0,0,1-.715-.832.732.732,0,0,1,.687-.84" transform="translate(-473.453 -239.747)"/><path class="d" d="M649.677,343.687c1.621-.072,2.708-.745,4.132-.176-.865.526-1.566,1.008-2.316,1.4-1.485.77-3.159,1.2-4.316-.264-1.1-1.4.646-2.177,1.291-3.1,1.913-2.726,4.458-5.039,5.454-8.569-2.189-.509-3.575,1.364-5.445,1.865.495-2.783,5.255-4.907,7.031-3.264,1.147,1.061.439,2.321-.027,3.485-1.268,3.168-3.775,5.523-5.8,8.621" transform="translate(-494.028 -238.707)"/><path class="d" d="M629.334,336.113c-2.426-.221-3.725,1.515-5.565,1.923.431-2.653,5.079-4.863,6.922-3.343,1.379,1.137.555,2.509.071,3.734-1.239,3.139-3.816,5.417-5.575,8.278,1.368.5,2.515-.915,3.911-.055-.9.568-1.721,1.162-2.608,1.63-1.282.676-2.637.929-3.769-.246-1.441-1.5.348-2.219.95-3.091,1.94-2.807,4.584-5.159,5.661-8.83" transform="translate(-480.564 -240.45)"/><path class="d" d="M603.511,357.1c-1.2-3.889.289-7.47,1.045-11.119.09-.436.373-1.048,1.046-.922a.9.9,0,0,1,.692,1.188c-.713,3.668-1.173,7.406-2.783,10.853" transform="translate(-470.12 -246.376)"/><path class="d" d="M671.17,230.825a1.329,1.329,0,0,1-1.641,1.027c-.691-.07-1.18-.4-1.077-1.193.122-.943.861-1.1,1.6-1.053a1.1,1.1,0,0,1,1.121,1.219" transform="translate(-505.839 -183.306)"/><path class="d" d="M418.77,250.636a27.758,27.758,0,0,0,3.075-2.513c2.011-2.2,3.99-4.444,5.886-6.748a11.41,11.41,0,0,1,4.988-3.877,17.911,17.911,0,0,1,4.145-.841c1.242-.069,1.492.378,1.532.931.066.816-.631,1.014-1.278,1.169-1.107.266-2.235.47-3.313.825a9.04,9.04,0,0,0-5.386,10.805,4.659,4.659,0,0,0,3.69,3.467,4.5,4.5,0,0,0,4.747-2.2c1.271-1.943,2.013-4.227,1.11-6.38a6.565,6.565,0,0,0-1.541-2c-.373-.345-1.208-.6-.548-1.445a1.189,1.189,0,0,1,1.55-.372c.5.2,1.074.343,1.615.516,4.458,1.426,8.018-1,8.445-5.667a14.152,14.152,0,0,1,.577-3.475,1.655,1.655,0,0,1,2.087-.991,1.81,1.81,0,0,1,1.267,2.136,13.75,13.75,0,0,1-1.328,2.947,11.12,11.12,0,0,0,2.986-.921c.472-.213,1.512-.94,2.287-1.3a1.49,1.49,0,0,1,1.95.218,1.6,1.6,0,0,1,0,1.984,44.441,44.441,0,0,0-2.2,4.141,26.422,26.422,0,0,0-1.457,4.87,3.083,3.083,0,0,0,1.535,3.475,3.367,3.367,0,0,0,4-.349,35.965,35.965,0,0,0,3.49-3.177,55.04,55.04,0,0,0,7.7-11.49,8.14,8.14,0,0,1,1.2-1.734,1.263,1.263,0,0,1,1.739-.241c.669.439.618,1.037.371,1.7-.851,2.264-1.735,4.518-2.506,6.809a13.9,13.9,0,0,0-.719,3.107,2.439,2.439,0,0,0,1.315,2.554,2.4,2.4,0,0,0,2.579-.5A25.206,25.206,0,0,0,480,240.626c1.981-2.235,3.478-4.793,5.379-7.1a13.916,13.916,0,0,1,7-5.016,12.356,12.356,0,0,1,3.155-.312.941.941,0,0,1,1.038.734.924.924,0,0,1-.579,1.144,5.156,5.156,0,0,1-1.795.162,7.2,7.2,0,0,0-6.04,3.453,11.06,11.06,0,0,0-1.852,5.822,5.665,5.665,0,0,0,1.744,4.438,4.223,4.223,0,0,0,5.477.459c3.149-2.2,4.449-6.147,1.236-9.275a5.154,5.154,0,0,1-.435-.47c-.417-.525-.827-1.176-.211-1.682a1.708,1.708,0,0,1,1.533-.079c3.607,1.912,6.714,1.08,9.566-1.555.359-.332.992-.954,1.515-.826.621.236-.086,1.146-.313,1.421a8.963,8.963,0,0,1-5.332,3.288c-2.445.471-3,.749-2.635,3.38a9.428,9.428,0,0,1-5.34,9.76,6.421,6.421,0,0,1-9.29-4.221,15.649,15.649,0,0,1-.4-4.96,20.808,20.808,0,0,1-1.809,2.447,32.482,32.482,0,0,1-4.609,5.089,15.312,15.312,0,0,1-2.911,2.132c-3.079,1.684-5.685.5-6.49-2.863a13.842,13.842,0,0,1,.119-3.655c-.628.727-1.735,2.195-2.151,2.686a54.927,54.927,0,0,1-5.425,5.739,8.211,8.211,0,0,1-3.68,1.6,4.941,4.941,0,0,1-6.12-5.267,30.119,30.119,0,0,1,1.264-5.591c.264-1.012.672-1.986,1.063-3.118a4.821,4.821,0,0,0-3.826,1.578c-1.423,2.478-3.649,3.436-6.275,3.921-2.022.373-2.762.588-2.367,3.077a9.3,9.3,0,0,1-3.614,8.691,7.261,7.261,0,0,1-7.04,1.292,6,6,0,0,1-4.171-5.412c-.118-1.034-.186-2.074-.323-3.644-1.014.84-8.139,7.653-11.655,9.876a6.808,6.808,0,0,1-4.167,1.407,3.321,3.321,0,0,1-3.04-2.286,2.643,2.643,0,0,1,2.233-3.606c1.2-.146,2.421-.04,3.623-.152a5.707,5.707,0,0,0,5.431-4.608c.182-.688.374-1.376.509-2.074a2.83,2.83,0,0,0-1.142-3.017,2.7,2.7,0,0,0-3.031.034,19.739,19.739,0,0,0-7.116,6.935,43.5,43.5,0,0,0-6.029,16.3,74.874,74.874,0,0,0-.85,7.556c-.131,2.126.1,4.349-.062,6.473-.095,1.267-.662,1.878-1.605,1.888a1.6,1.6,0,0,1-1.733-1.8,217.718,217.718,0,0,1,4.263-26.46c-.825.563-3.506,3.152-4.584,4.074a9.362,9.362,0,0,1-2.674,1.69c-3.023,1.138-5.283-.4-5.413-3.641-.057-1.416.141-2.84.147-4.261,0-.962.271-2.131-.883-2.635-.689-.258-1.728.437-2.416,1a50.247,50.247,0,0,0-9.274,10.267c-.162.233-.287.492-.439.733-.525.833-1.159,1.484-2.263,1.139-1.046-.327-1.132-1.232-1.067-2.09.159-2.124.382-4.244.622-6.36.11-.97.47-2.142-.321-2.778-.709-.574-1.967.369-2.746.978a64.478,64.478,0,0,0-10.76,10.916,7.979,7.979,0,0,1-1.087,1.309c-.346.279-.995.615-1.254.47a1.858,1.858,0,0,1-.836-1.292,8.979,8.979,0,0,1,.307-2.317c.191-.747.787-2.922.916-3.752-.789.829-2.13,2.61-2.548,3.124-4.16,5.112-8.74,9.754-14.545,13.025a23.753,23.753,0,0,1-11.113,3.383c-6.808.178-12.059-3.405-14.314-9.672-1.475-4.1-1.147-8.261-.482-12.443.116-.725.206-2.29.4-3.217a40.386,40.386,0,0,0-3.847,1.8,6.657,6.657,0,0,1,.553-2.834c1.014-.421,3.254-1.664,4.283-2.1,0,0,.932-1.77,1.515-3.066a55.5,55.5,0,0,1,10.779-15.281c1.124-1.185,2.275-2.35,3.489-3.441.915-.822.968-.762,2.77-.367-.767.879-1.421,1.67-2.117,2.42-4.514,4.866-8.761,9.927-11.732,15.928-.252.51-.5,1.026-.7,1.555-.069.179-.447.809-.631,1.243.578-.158,1.746-.566,2.241-.73,5.2-1.726,10.361-3.559,15.591-5.176a36.519,36.519,0,0,1,10.474-1.837c.723-.006,1.8-.27,1.841.873.04,1.047-.962,1.086-1.739,1.128-7.942.435-15.276,3.168-22.594,5.96-1.725.658-3.432,1.366-5.162,2.01a17.569,17.569,0,0,0-1.717.672s-.216,1.253-.292,1.87c-.558,4.549-.78,9.012,1.4,13.349,2.6,5.165,9.342,8.19,14.521,6.968,7.155-1.688,12.868-5.577,17.707-10.894a53.378,53.378,0,0,0,8.127-11.2c1.077-2.07,1.52-2.263,3.656-2.3-.556,2.915-2.409,6.232-2.444,9.7a6.81,6.81,0,0,0,1.4-1.082c1.555-1.357,3.01-2.834,4.622-4.117,1.774-1.412,5.615-4.377,6.913-4.505,1.587-.308,2.5.338,2.619,1.95a29.226,29.226,0,0,1-.069,3.409c-.038.837-.171,2.189-.278,3.555.71-.71,1.348-1.226,1.683-1.566,1.5-1.52,6.313-6.679,9.478-8.431a6.536,6.536,0,0,1,1.9-.608c1.636-.28,2.522.209,2.74,1.864a45.53,45.53,0,0,1,.117,5.1,9.718,9.718,0,0,0,.1,2.314,1.862,1.862,0,0,0,3,1.18,16.54,16.54,0,0,0,2.722-2.379,56.213,56.213,0,0,0,10.551-15.435,18.06,18.06,0,0,1,1.609-2.756,1.95,1.95,0,0,1,1.224-.709c.9-.113,1.225.762.69,1.876-1.017,2.116-2.076,4.211-3.095,6.327-.166.345-.6,1.4-.933,2.252.548-.489,1.967-1.93,2.525-2.407,1.187-1.013,2.4-2.02,3.676-2.913,1.462-1.027,3.129-1.512,4.8-.481a5.144,5.144,0,0,1,2.389,4.924,11.135,11.135,0,0,1-1.658,5.008" transform="translate(-310.128 -181.58)"/><path class="d" d="M363.89,206.441c-3.5.039-6.238-.172-16.985,3a69.142,69.142,0,0,0-13.028,5.758c-1.533.84-2.6,1.858-2.682,3.762-.05,1.207-.709,1.7-1.57,1.535a1.55,1.55,0,0,1-1.068-2.323,11.83,11.83,0,0,1,2.782-3.14,46.4,46.4,0,0,1,11.082-5.86,57.355,57.355,0,0,1,13.907-3.922,50.671,50.671,0,0,1,8.7-.514,8.6,8.6,0,0,1,3.243.913,2.727,2.727,0,0,1,.614,4.733,8.961,8.961,0,0,1-3.721,1.875.773.773,0,0,1-.885-.508.676.676,0,0,1,.3-.886c.593-.376,1.268-.52,1.893-.943a2.065,2.065,0,0,0,1.134-1.577,2.165,2.165,0,0,0-1.224-1.488,5.768,5.768,0,0,0-2.488-.411" transform="translate(-320.027 -169.702)"/><path class="d" d="M581.509,241.109a.789.789,0,0,1-.215-1.217,10.189,10.189,0,0,0,2.372-3.962c.076-.382.509-.4.932-.169a.875.875,0,0,1,.537,1,6.559,6.559,0,0,1-2.614,4.076c-.34.275-.722.463-1.013.267" transform="translate(-458.118 -186.591)"/><path class="c" d="M956.708,131.04c-.108-.232-.216-.936-.805-.407l-.933.379a.2.2,0,0,1-.1.086l.1-.086-1.241-.058a3.5,3.5,0,0,0-2-.27l-.014,0,.01-.011,0,.007.014-.027h-.028c-.192-.431-.6-.282-.931-.319-.112-.584-1.018-.3-1.083-.945,2.033-1.219,2.033-1.219,2.962-.921.621.486,1.088.415,1.354-.375-.129-.884-.213-1.013-.447-.86-1.34.877-2.74-.494-4.062.161-.114-.649-.395-.971-1.06-.543a.122.122,0,0,1-.044.076l.044-.076c-.438-.339-1.329-.686-.308-1.23.577-.307.114-1.106.823-1.2.178-.024.438-.168.266-.446a.54.54,0,0,0-.676-.269,9.543,9.543,0,0,1-6.129-.061c.754.185.281-.646.822-.8,1.212-.339.348-1.216.005-1.339-1.812-.651-3.395-2.3-5.612-1.393a5.234,5.234,0,0,1-1.425.162c-.972-.826-1.948.276-2.921,0-.179-.132-.274-.44-.586-.293a.673.673,0,0,0,.014-.175c-.191-.416-.577-.474-.968-.524-.171-.015-.343-.015-.516-.018a1.022,1.022,0,0,0,.429-.253l-.032-.029c.586-.258.074-.639.108-.959-.24-.34-.483-.007-.724,0a.58.58,0,0,0-.7-.273l-1.942.055c0-1.187,1.276-.746,1.929-1.431-.892,0-1.589.054-2.274-.014-.868-.086-.9.441-.9,1.05a13.946,13.946,0,0,1-2.6.339c-1-.069,0,.379-.084.572a14.618,14.618,0,0,0-4,.265,54.578,54.578,0,0,1-11.089,1.361c-4.626.1-9.14,1.254-13.709,1.908-1.264.181-2.443.877-3.772.619-.931.686-1.568,1.706-1.672,1.627a.306.306,0,0,1-.019.072l-1.594.032c.455-.512,1.15-.289,1.694-.352l.143-.3c.088-.443.067-.561.155-1a90.69,90.69,0,0,0-9.089,1.7,3.655,3.655,0,0,0-2.669,1.2.248.248,0,0,0-.224.127,11.888,11.888,0,0,0-2.609.591,2.391,2.391,0,0,0-1.31.352c-.891.069-1.836-.02-2.449.851l-.788.064c-.57-.681-.916-.21-1.406.313h1.094q0,.327.006.654l-.014,0s0,.008.007.012c-.375.14-.8-.548-1.111.057-.043.085.285.359.442.546a27.013,27.013,0,0,0-4.494,1.106,1.017,1.017,0,0,0,.1.217c.027.035.1.034.15.05q.016.292.033.583l-.624.345c-.463-.015-.942-.058-1.016.594-1.908.7-3.989.934-5.881,1.958a2.983,2.983,0,0,0,2.735.182,19.252,19.252,0,0,1,6.413-.857q-.008.161-.01.323c-.085.11-.535.049-.211.336.211.187.637-.021.828.323l-1.514.411-1.683-.016.066.063a.228.228,0,0,1-.066-.063,2.537,2.537,0,0,0-2.27.984,11.524,11.524,0,0,0-4.83,1.595c-1.726-.816-3.032.52-4.577.69.466.789,1.3-.41,1.632.563-.7.25-1.381.54-2.091.743-1.985.568-3.378,2.246-5.352,2.823-.607.046-1.277-.088-1.689.545.452.435.965-.615,1.374.115-.427.453-.328.666.283.537,1.516-.321,3.011-.764,4.54-.989,1.615-.238,3.2-.9,4.856-.762l.088.416-3.256,1.153c-.236-.073-.463-.318-.719-.069s.053.478.069.72c-1.195.94-2.979,1.145-3.878,2.994,4.991-1.023,9.636-2.029,14.318-2.851,3.318-.583,6.542-1.649,9.887-2.145l.351.352-.394.188c.45-.125.719,1.121,1.278.168l.108-.343c.762-.316,1.475.5,2.241.1.476-.21,1.083.076,1.489-.4a6.688,6.688,0,0,0,2.747-.6c.548-.1,1.141-.007,1.619-.392h0l.749-.312h0c.406.566.792.089,1.185-.023,2.65-.53,5.3-1.068,7.95-1.589a93.911,93.911,0,0,1,12.436-1.641c.42.749.86.79,1.323.037,2.9.094,5.8.595,8.689-.088l.989.056c.345.99.977.728,1.63.374a3.153,3.153,0,0,0,1.6-.429,1.609,1.609,0,0,0,.478.029c4.036-1.016,8.219-.446,12.309-1.157,1.7-.295,3.476-.054,5.029-1.058.426-.2.892,1.267,1.291-.032-.12-.543.438-.62.644-.94l1.569-.082.347.342a1.468,1.468,0,0,0-.157.227c-.015.032.032.133.051.133a2.866,2.866,0,0,0,2.716-1.22c.556-1-.411-1.645-1.082-2.243a3.611,3.611,0,0,0-.85-.452.554.554,0,0,1-.254-.811c.139-.3.424-.262.682-.123a4.344,4.344,0,0,0,2.051.318,9.411,9.411,0,0,1,4.61.925c.486.269,1.342,1.8,2.29.351.291.355.605.492.974.1h0a5.926,5.926,0,0,1,1.959.173l.5.143c.583.264,1.214.707,1.434-.379v0c.168-.079.608.094.425-.3M855.694,138.2c.157-.138.313-.275.545-.166l-.545.166m13.605-5.186c-.006.006-.014.01-.02.016a2.435,2.435,0,0,1-.6.093,4.83,4.83,0,0,1,.553-.107,1.376,1.376,0,0,1,1.011-.242,1.342,1.342,0,0,0-.946.24m1.567-.345a1.424,1.424,0,0,1-.314.078.978.978,0,0,0,.181-.053c-.116-.182.232-.036.132-.024m2.226-.348c.446-.237.852-.784,1.657-.125l-1.657.125m1.945-.452a1.218,1.218,0,0,1,1.426-.492,1.271,1.271,0,0,1-1.426.492m3.957-5.46a3.312,3.312,0,0,0-.657.121c-.081.026-.164.046-.246.069l-.01-.01a3.266,3.266,0,0,0,.843-.359.546.546,0,0,0,.086-.368c.238.13.476.384.714.484-.242.023-.486.042-.729.064m2.194,14.3-.39-.025c.32-.551.893-.185,1.316-.362-.061.721-.632.223-.926.387m5.686-16.13c-.059.18-.174.148-.369.059.164-.071.33-.137.5-.194a.924.924,0,0,0-.13.135m28.614,12.182v0a.434.434,0,0,0-.054-.064,8.1,8.1,0,0,0-1-.412c.54.017,1.042-.013,1.521-.038a2.011,2.011,0,0,0-.471.512m2.258-.287a.839.839,0,0,0-.7.042c-.03.014-.058.032-.087.047a1.279,1.279,0,0,0-.308-.337,5.394,5.394,0,0,1,1.208.1c-.04.048-.079.1-.117.152m1.3-16.81c-.348.559-.967.181-1.586.7.473-1.059.987-1.038,1.586-.7l.009-.013.007.023-.016-.01m9.185-1.174c-.639.752-1.415.421-2.173.328l2.173-.328m-2.845.225c-.547.645-1.048.684-1.979.485l1.979-.485m3.682,1.611c.043.437-.359.482-.593.676-.465-.21-.767-.739-1.36-.7l-1.3.046-1.266-.054a4.617,4.617,0,0,1-2.265.341.489.489,0,0,1-.646.285c-.061-.019-.143-.17-.121-.219.157-.352.472-.376.8-.346l2.23-.285,1.555-.127c.677-.611,1.334.023,2,.034-.19-.476-.041-.693.479-.629.658.081.79.42.485.978m2.905.612c-.4.037-.8.34-1.224-.04.278-.808,1-.534,1.564-.637l-.341.678m13.918,7c-1.47.3-2.948.57-4.843.924,1.437-1.866,2.87-2.3,4.616-1.825.241.066.592.062.554.431-.018.172-.186.441-.327.47" transform="translate(-602.919 -121.436)"/><path class="e" d="M1038.657,120.9c.41-.594.928-.109,1.386-.168.246-.032,1.068.026.539-.725a.879.879,0,0,1-.782.008.8.8,0,0,0,.169-.133c.168-.408.814-.043.973-.655-1.019.244-2.05-.349-2.953.372l-.3.6-.452.553a1.75,1.75,0,0,0,1.422.147" transform="translate(-707.321 -123.008)"/><path class="e" d="M1048.866,117.954c.138.015.329-.029.206-.318a.981.981,0,0,0-.347-.177c-.171-.017-.315.12-.224.293a.519.519,0,0,0,.365.2" transform="translate(-713.46 -122.04)"/><path class="e" d="M905.44,136.508l1.088-.184c-.374-.516-.706-.659-1.131-.284-.409.218-1.035-.155-1.293.472a1.04,1.04,0,0,0,1.336,0" transform="translate(-634.588 -132.077)"/><path class="e" d="M904.042,137.289l.025.027,0-.006c-.01-.008-.019-.013-.029-.021" transform="translate(-634.555 -132.875)"/><path class="e" d="M902.279,137.366l-1.446.323c.612.23,1.229.467,1.446-.323" transform="translate(-632.801 -132.917)"/><path class="e" d="M904.031,137.291c0,.012-.007.022-.01.034l.036-.008-.025-.026" transform="translate(-634.543 -132.876)"/><path class="e" d="M875.808,151.276l-1.278.177a.882.882,0,0,0,1.278-.177" transform="translate(-618.431 -140.516)"/><path class="e" d="M1066.373,156.779a1.112,1.112,0,0,0,1.566-.01c-.652-.328-1.081-.416-1.566.01" transform="translate(-723.24 -143.365)"/><path class="e" d="M962.27,165.352c-.485.075-1.088-.216-1.492.516l1.469-.2a1.406,1.406,0,0,0,1.461-.514,1.508,1.508,0,0,0-1.438.2" transform="translate(-665.551 -148.042)"/><path class="f" d="M953.372,50.616a16.536,16.536,0,0,0,2.858,1.341,38.145,38.145,0,0,0,14.264,2.571A26.607,26.607,0,0,0,978,53.52a11.945,11.945,0,0,0,6.164-3.964,7.209,7.209,0,0,0,1.514-5.966,6.666,6.666,0,0,0-1.671-3.272,9.671,9.671,0,0,0-5.673-2.949,18.458,18.458,0,0,0-7.082.255,28.419,28.419,0,0,0-4.722,1.416,44.778,44.778,0,0,0-4.175,1.954c-2.245,1.161-4.448,2.4-6.688,3.573-3.183,1.664-6.362,3.339-9.583,4.927a62.535,62.535,0,0,1-10.555,4.248,17.058,17.058,0,0,1-5.512.766,8.05,8.05,0,0,1-5.2-2.123,4.7,4.7,0,0,1-.417-.5l.105-.126a4.543,4.543,0,0,1,.532.359,7.785,7.785,0,0,0,4.039,1.8,12.055,12.055,0,0,0,4.458-.308,42.74,42.74,0,0,0,8.828-3.114c1.511-.671,3.011-1.369,4.488-2.111,2.02-1.016,4.084-1.941,6.084-3s3.986-2.081,5.991-3.1c2.2-1.118,4.391-2.271,6.64-3.291a34.916,34.916,0,0,1,4.145-1.44c.883-.273,1.8-.428,2.706-.642a16.443,16.443,0,0,1,4.637-.267,10.687,10.687,0,0,1,6.76,2.572,7.4,7.4,0,0,1,2.606,6.726,8.577,8.577,0,0,1-3.394,5.8,14.136,14.136,0,0,1-6.073,2.775,35.273,35.273,0,0,1-13.337.044,36.07,36.07,0,0,1-9.261-2.973,5.962,5.962,0,0,1-1.286-.83Z" transform="translate(-645.678 -77.87)"/><path class="f" d="M944.211,61.668c-2.845,1.3-5.735,2.5-8.549,3.858-2.737,1.322-5.409,2.779-8.095,4.2a30.552,30.552,0,0,1-6.251,2.638,11.2,11.2,0,0,1-6.275.158,7.222,7.222,0,0,1-4.352-3.625,8.786,8.786,0,0,1-1.057-3.062,7.358,7.358,0,0,1,1.6-5.661,9.777,9.777,0,0,1,4.183-2.976,20.922,20.922,0,0,1,7.429-1.4,57.855,57.855,0,0,1,10.978.731,21.127,21.127,0,0,1,4.936,1.247,5.31,5.31,0,0,0,.657.174.669.669,0,0,1-.723.148,40.136,40.136,0,0,0-8.063-1.413,63.431,63.431,0,0,0-7.053-.24,21.924,21.924,0,0,0-7.891,1.427,9.365,9.365,0,0,0-3.678,2.514,6.784,6.784,0,0,0-.944,7.8,6.868,6.868,0,0,0,3.613,3.569,8.669,8.669,0,0,0,4.726.473,24.4,24.4,0,0,0,7.486-2.651c3.444-1.816,6.865-3.683,10.352-5.415,2.613-1.3,5.285-2.489,7.985-3.6a53.362,53.362,0,0,1,8.7-2.786,27.364,27.364,0,0,1,6.145-.733,9.7,9.7,0,0,1,4.694,1.137,3.608,3.608,0,0,1,1.657,1.726.915.915,0,0,1-.237-.132,7.686,7.686,0,0,0-5.619-2.2,24.884,24.884,0,0,0-6.523.8,66.292,66.292,0,0,0-7.751,2.455c-.309.114-1.667.635-2.084.825" transform="translate(-637.571 -88.344)"/><path class="d" d="M983.28,127.447a2.262,2.262,0,0,0-2.687-.3,3.332,3.332,0,0,0-1.821,2.136,34.611,34.611,0,0,0-1.261,8.766c-.051,1.066-.464,2.233.5,3.662.192-1.728.354-3.056.485-4.387a2.442,2.442,0,0,1,1.212-2.076,10.667,10.667,0,0,0,4.089-5.284,2.127,2.127,0,0,0-.517-2.517m-.69,2.428a15.27,15.27,0,0,1-3.543,4.789,11.665,11.665,0,0,1,1.374-5.918c.367-.652,1.052-1.238,1.85-.848.862.421.639,1.279.319,1.977" transform="translate(-674.621 -127.168)"/><path class="d" d="M928.913,135.579a.247.247,0,0,0-.373-.035c-1.233,1.714-1.319,3.8-1.856,5.742-.186.671-.25,1.124-1.18,1.117-1.892-.015-2.264,1.566-2.592,2.963a2.718,2.718,0,0,0,1.475,3.247c1.114.583,2.607-.056,2.667-1.146A47.682,47.682,0,0,1,929,136.743c.126-.434.316-.8-.083-1.164m-2.659,8.875c-.022.427-.051.853-.077,1.28l.053.006c-.05.368-.1.737-.15,1.107-.058.471.314,1.253-.535,1.216a1.5,1.5,0,0,1-1.522-1.2,4.294,4.294,0,0,1,.619-2.921,1.123,1.123,0,0,1,1.176-.673c.673.146.459.726.435,1.186" transform="translate(-644.811 -131.883)"/><path class="d" d="M1034.184,136.632c-.659-.4-1.026.377-1.423.766a10.77,10.77,0,0,0-2.214,3.72c-.273.651-.486,1.288.224,1.7a1.4,1.4,0,0,0,1.871-.452c.49-.607.884-1.291,1.556-2.294a6.314,6.314,0,0,0,.965,3.541c.106-1.908.163-3.517.3-5.12.084-1-.636-1.479-1.275-1.864m-2.437,4.957a7.994,7.994,0,0,1,2-3.659,6.539,6.539,0,0,1-2,3.659" transform="translate(-703.527 -132.456)"/><path class="d" d="M945.245,150.07a1.813,1.813,0,0,0-1.138-1.606c-.665-.368-1.071.223-1.482.639a10.8,10.8,0,0,0-2.219,3.7c-.246.614-.646,1.249.087,1.7a1.453,1.453,0,0,0,2.006-.407c.482-.6.878-1.278,1.5-2.2.185,1.3.089,2.337,1.243,3.107,0-1.645-.01-3.29,0-4.934m-3.745,3.614a7.456,7.456,0,0,1,1.908-3.794,7.1,7.1,0,0,1-1.908,3.794" transform="translate(-654.239 -138.916)"/><path class="d" d="M998.252,137.81a.451.451,0,0,1,.438.37c.055.323-.133.525-.424.487a.609.609,0,0,1-.367-.426.375.375,0,0,1,.353-.431" transform="translate(-685.828 -133.159)"/><path class="d" d="M1018.663,143.335c.831-.037,1.388-.382,2.118-.09-.443.27-.8.517-1.187.716-.762.395-1.62.617-2.213-.136-.566-.717.332-1.116.662-1.587.98-1.4,2.285-2.583,2.8-4.392-1.122-.261-1.832.7-2.79.956.253-1.426,2.693-2.515,3.6-1.673.588.544.225,1.19-.014,1.786-.65,1.624-1.935,2.831-2.975,4.419" transform="translate(-696.374 -132.626)"/><path class="d" d="M1008.236,139.452c-1.243-.113-1.909.776-2.853.986.221-1.36,2.6-2.493,3.549-1.714.706.583.284,1.286.036,1.914-.635,1.609-1.956,2.777-2.858,4.243.7.255,1.289-.469,2.005-.029-.461.291-.882.6-1.337.836a1.49,1.49,0,0,1-1.932-.127c-.738-.767.178-1.137.487-1.584.994-1.439,2.35-2.644,2.9-4.526" transform="translate(-689.473 -133.52)"/><path class="d" d="M995,150.211c-.617-1.993.148-3.829.536-5.7.046-.223.191-.537.536-.472a.459.459,0,0,1,.355.608A23.3,23.3,0,0,1,995,150.211" transform="translate(-684.12 -136.558)"/><path class="f" d="M1029.68,85.484a.681.681,0,0,1-.841.526c-.355-.036-.6-.206-.552-.612.063-.483.442-.562.819-.539a.563.563,0,0,1,.574.625" transform="translate(-702.428 -104.229)"/><path class="f" d="M900.3,95.638a14.294,14.294,0,0,0,1.576-1.288c1.031-1.131,2.045-2.278,3.017-3.46a5.85,5.85,0,0,1,2.557-1.987,9.144,9.144,0,0,1,2.125-.431c.637-.035.765.194.785.477.034.418-.323.519-.655.6-.567.137-1.145.241-1.7.423a4.632,4.632,0,0,0-2.761,5.538,2.387,2.387,0,0,0,1.891,1.778,2.308,2.308,0,0,0,2.433-1.127,3.5,3.5,0,0,0,.569-3.271,3.358,3.358,0,0,0-.79-1.028c-.192-.177-.619-.309-.281-.741a.609.609,0,0,1,.794-.191c.254.1.551.176.828.265a3.121,3.121,0,0,0,4.329-2.9,7.21,7.21,0,0,1,.3-1.781.848.848,0,0,1,1.07-.509.927.927,0,0,1,.649,1.095,7.024,7.024,0,0,1-.681,1.51,5.684,5.684,0,0,0,1.531-.472c.242-.109.775-.482,1.172-.665a.764.764,0,0,1,1,.112.822.822,0,0,1,0,1.017,22.723,22.723,0,0,0-1.127,2.122,13.58,13.58,0,0,0-.748,2.5A1.581,1.581,0,0,0,918.972,95a1.726,1.726,0,0,0,2.049-.179,18.5,18.5,0,0,0,1.788-1.628,28.183,28.183,0,0,0,3.947-5.89,4.208,4.208,0,0,1,.616-.889.647.647,0,0,1,.891-.124c.343.225.318.531.191.869-.436,1.161-.889,2.316-1.284,3.491a7.107,7.107,0,0,0-.369,1.592,1.25,1.25,0,0,0,.674,1.309,1.232,1.232,0,0,0,1.322-.257,12.907,12.907,0,0,0,2.892-2.785c1.015-1.146,1.783-2.456,2.757-3.639a7.134,7.134,0,0,1,3.589-2.571,6.353,6.353,0,0,1,1.617-.16.483.483,0,0,1,.532.376.474.474,0,0,1-.3.587,2.619,2.619,0,0,1-.92.083,3.692,3.692,0,0,0-3.1,1.77,5.666,5.666,0,0,0-.949,2.984,2.9,2.9,0,0,0,.894,2.275,2.164,2.164,0,0,0,2.807.235c1.615-1.127,2.281-3.151.634-4.755a2.593,2.593,0,0,1-.223-.241c-.213-.269-.424-.6-.108-.862a.877.877,0,0,1,.786-.04,3.925,3.925,0,0,0,4.9-.8c.185-.17.509-.489.777-.423.319.121-.044.588-.16.728a4.594,4.594,0,0,1-2.734,1.686c-1.253.241-1.539.384-1.35,1.732a4.833,4.833,0,0,1-2.737,5,3.291,3.291,0,0,1-4.762-2.164,8.024,8.024,0,0,1-.2-2.543,10.675,10.675,0,0,1-.928,1.254,16.653,16.653,0,0,1-2.362,2.609,7.8,7.8,0,0,1-1.492,1.092,2.085,2.085,0,0,1-3.326-1.467,7.064,7.064,0,0,1,.061-1.874c-.322.372-.89,1.125-1.1,1.376a28.2,28.2,0,0,1-2.781,2.942,4.2,4.2,0,0,1-1.886.821,2.533,2.533,0,0,1-3.137-2.7,15.457,15.457,0,0,1,.648-2.866c.136-.519.345-1.018.545-1.6a2.47,2.47,0,0,0-1.961.809,4.244,4.244,0,0,1-3.217,2.01c-1.036.191-1.416.3-1.214,1.577a4.767,4.767,0,0,1-1.852,4.455,3.725,3.725,0,0,1-3.609.662A3.073,3.073,0,0,1,903.7,96.1c-.061-.53-.1-1.063-.165-1.868a69.659,69.659,0,0,1-5.975,5.063,3.488,3.488,0,0,1-2.136.721,1.7,1.7,0,0,1-1.558-1.171A1.355,1.355,0,0,1,895.006,97c.613-.074,1.241-.02,1.857-.078a2.924,2.924,0,0,0,2.784-2.362c.094-.353.192-.705.261-1.063a1.451,1.451,0,0,0-.585-1.547,1.383,1.383,0,0,0-1.554.018,10.12,10.12,0,0,0-3.648,3.554,22.306,22.306,0,0,0-3.09,8.356,38.487,38.487,0,0,0-.436,3.873c-.067,1.09.049,2.229-.032,3.317-.049.65-.339.963-.823.968a.82.82,0,0,1-.888-.923,111.49,111.49,0,0,1,2.185-13.563c-.423.289-1.8,1.616-2.351,2.088a4.767,4.767,0,0,1-1.37.866,1.889,1.889,0,0,1-2.775-1.866c-.029-.726.073-1.456.075-2.184,0-.493.139-1.092-.453-1.351-.352-.132-.885.224-1.238.514a25.735,25.735,0,0,0-4.754,5.263c-.083.12-.147.252-.225.376-.27.427-.594.761-1.161.584-.536-.167-.579-.631-.547-1.071.082-1.088.2-2.175.318-3.26.057-.5.241-1.1-.165-1.424-.363-.294-1.008.189-1.407.5a33.008,33.008,0,0,0-5.515,5.6,4.1,4.1,0,0,1-.558.671c-.177.143-.51.315-.643.241a.951.951,0,0,1-.428-.662,4.6,4.6,0,0,1,.157-1.187c.1-.383.4-1.5.47-1.923-.4.425-1.091,1.337-1.306,1.6a26.618,26.618,0,0,1-7.456,6.676,12.171,12.171,0,0,1-5.7,1.734,7.222,7.222,0,0,1-7.338-4.958,12.57,12.57,0,0,1-.246-6.378c.059-.372.105-1.174.206-1.649a20.674,20.674,0,0,0-1.972.921,3.407,3.407,0,0,1,.284-1.453c.519-.216,1.668-.853,2.195-1.075,0,0,.478-.907.777-1.572a28.45,28.45,0,0,1,5.525-7.833c.576-.607,1.166-1.2,1.788-1.763.469-.421.5-.391,1.42-.188-.393.451-.728.856-1.085,1.24a35.071,35.071,0,0,0-6.014,8.165c-.129.261-.254.526-.36.8-.035.092-.229.415-.323.637.3-.081.9-.291,1.149-.375,2.664-.885,5.311-1.824,7.991-2.653a18.734,18.734,0,0,1,5.369-.941c.37,0,.921-.138.944.448.021.536-.493.556-.891.578-4.071.223-7.83,1.624-11.582,3.055-.884.337-1.759.7-2.646,1.03a8.977,8.977,0,0,0-.88.344s-.111.642-.15.959c-.286,2.332-.4,4.619.719,6.843a7.107,7.107,0,0,0,7.443,3.572,17.578,17.578,0,0,0,9.077-5.584,27.356,27.356,0,0,0,4.165-5.743c.552-1.061.779-1.16,1.874-1.176-.285,1.494-1.235,3.194-1.253,4.974a3.52,3.52,0,0,0,.72-.554c.8-.7,1.543-1.453,2.369-2.111.909-.724,2.878-2.243,3.543-2.309.814-.157,1.282.173,1.342,1a15.017,15.017,0,0,1-.035,1.748c-.019.429-.088,1.122-.142,1.822.364-.364.691-.628.862-.8a29.308,29.308,0,0,1,4.859-4.322,3.37,3.37,0,0,1,.973-.312c.839-.143,1.292.107,1.4.956a23.285,23.285,0,0,1,.06,2.614,4.992,4.992,0,0,0,.052,1.185.955.955,0,0,0,1.539.605,8.458,8.458,0,0,0,1.395-1.219,28.8,28.8,0,0,0,5.408-7.912,9.247,9.247,0,0,1,.825-1.412,1,1,0,0,1,.628-.363c.462-.058.628.391.353.962-.521,1.084-1.064,2.159-1.586,3.243-.085.177-.307.72-.478,1.154.281-.25,1.008-.989,1.294-1.234.608-.52,1.233-1.035,1.884-1.494a2.122,2.122,0,0,1,2.461-.247,2.637,2.637,0,0,1,1.224,2.524,5.711,5.711,0,0,1-.85,2.567" transform="translate(-602.11 -103.344)"/><path class="f" d="M872.173,72.984c-1.795.02-3.2-.088-8.706,1.536a35.42,35.42,0,0,0-6.678,2.951,2.2,2.2,0,0,0-1.375,1.928c-.025.619-.364.87-.8.787a.794.794,0,0,1-.547-1.19,6.053,6.053,0,0,1,1.426-1.61,23.769,23.769,0,0,1,5.68-3,29.417,29.417,0,0,1,7.128-2.011,26.013,26.013,0,0,1,4.459-.263,4.409,4.409,0,0,1,1.662.469A1.4,1.4,0,0,1,874.733,75a4.6,4.6,0,0,1-1.908.961.4.4,0,0,1-.453-.26.346.346,0,0,1,.153-.454c.3-.193.65-.267.97-.483a1.06,1.06,0,0,0,.582-.808,1.11,1.11,0,0,0-.628-.763,2.95,2.95,0,0,0-1.275-.211" transform="translate(-607.184 -97.255)"/><path class="f" d="M983.722,90.755a.4.4,0,0,1-.111-.624,5.228,5.228,0,0,0,1.216-2.031c.039-.2.261-.2.478-.086a.448.448,0,0,1,.275.514,3.363,3.363,0,0,1-1.34,2.089c-.175.141-.371.237-.519.137" transform="translate(-677.968 -105.913)"/><path class="g" d="M956.708,305.555c-.108-.232-.216-.936-.805-.407l-.933.379a.2.2,0,0,1-.1.086l.1-.086-1.241-.058a3.5,3.5,0,0,0-2-.27l-.014,0,.01-.011,0,.007.014-.027h-.028c-.192-.431-.6-.282-.931-.319-.112-.584-1.018-.3-1.083-.945,2.033-1.219,2.033-1.219,2.962-.921.621.486,1.088.415,1.354-.375-.129-.884-.214-1.013-.447-.86-1.34.877-2.74-.494-4.062.161-.114-.649-.395-.971-1.06-.543a.122.122,0,0,1-.044.076l.044-.076c-.438-.339-1.329-.686-.308-1.23.577-.307.114-1.106.823-1.2.178-.024.438-.168.266-.446a.539.539,0,0,0-.676-.269,9.544,9.544,0,0,1-6.129-.061c.754.185.281-.646.822-.8,1.212-.339.348-1.216.005-1.339-1.812-.651-3.395-2.3-5.612-1.393a5.235,5.235,0,0,1-1.425.162c-.972-.826-1.948.276-2.921-.005-.179-.132-.274-.44-.586-.293a.672.672,0,0,0,.014-.175c-.191-.416-.577-.474-.968-.524-.171-.015-.343-.015-.516-.018a1.022,1.022,0,0,0,.429-.253l-.032-.029c.586-.258.074-.639.108-.959-.24-.34-.483-.007-.724,0a.58.58,0,0,0-.7-.273l-1.942.055c0-1.187,1.276-.746,1.929-1.431-.892,0-1.589.054-2.274-.014-.868-.086-.9.441-.9,1.05a13.953,13.953,0,0,1-2.6.339c-1-.069,0,.379-.084.572a14.618,14.618,0,0,0-4,.265,54.574,54.574,0,0,1-11.089,1.361c-4.626.1-9.14,1.254-13.709,1.908-1.264.181-2.443.876-3.772.62-.931.686-1.568,1.706-1.672,1.627a.306.306,0,0,1-.019.072l-1.594.032c.455-.512,1.15-.289,1.694-.352l.143-.3c.088-.443.067-.561.155-1a90.829,90.829,0,0,0-9.089,1.7,3.655,3.655,0,0,0-2.669,1.2.248.248,0,0,0-.224.127,11.889,11.889,0,0,0-2.609.591,2.391,2.391,0,0,0-1.31.352c-.891.069-1.836-.02-2.449.851l-.788.064c-.57-.681-.916-.21-1.406.313h1.094q0,.327.006.654l-.014,0s0,.008.007.012c-.375.14-.8-.548-1.111.057-.043.085.285.359.442.546a27.014,27.014,0,0,0-4.494,1.106,1.019,1.019,0,0,0,.1.217c.027.035.1.034.15.05q.016.292.033.583l-.624.345c-.463-.015-.942-.058-1.016.594-1.908.7-3.989.934-5.881,1.958a2.982,2.982,0,0,0,2.735.182,19.253,19.253,0,0,1,6.413-.857q-.008.161-.01.323c-.085.11-.535.049-.211.336.211.187.637-.021.828.323L867,309.1l-1.683-.016.066.063a.229.229,0,0,1-.066-.063,2.537,2.537,0,0,0-2.27.984,11.524,11.524,0,0,0-4.83,1.595c-1.726-.816-3.032.52-4.577.69.466.789,1.3-.41,1.632.563-.7.25-1.381.54-2.091.743-1.985.568-3.378,2.246-5.352,2.823-.607.046-1.277-.089-1.689.545.452.435.965-.615,1.374.115-.427.453-.328.666.283.537,1.516-.321,3.011-.764,4.54-.99,1.615-.238,3.2-.9,4.856-.762l.088.416-3.256,1.153c-.236-.073-.463-.318-.719-.069s.053.478.069.72c-1.195.94-2.979,1.145-3.878,2.994,4.991-1.023,9.636-2.029,14.318-2.851,3.318-.583,6.542-1.649,9.887-2.145l.351.352-.394.188c.45-.125.719,1.121,1.278.168l.108-.343c.762-.316,1.475.5,2.241.1.476-.21,1.083.076,1.489-.4a6.69,6.69,0,0,0,2.747-.6c.548-.1,1.141-.007,1.619-.392h0l.749-.312h0c.406.566.792.089,1.185-.023,2.65-.53,5.3-1.068,7.95-1.589a93.9,93.9,0,0,1,12.436-1.641c.42.749.86.79,1.323.037,2.9.094,5.8.595,8.689-.088l.989.056c.345.99.977.728,1.63.374a3.153,3.153,0,0,0,1.6-.429,1.61,1.61,0,0,0,.478.029c4.036-1.016,8.219-.446,12.309-1.157,1.7-.295,3.476-.053,5.029-1.058.426-.2.892,1.267,1.291-.032-.12-.543.438-.62.644-.94l1.569-.082.347.342a1.468,1.468,0,0,0-.157.227c-.015.032.032.133.051.133a2.866,2.866,0,0,0,2.716-1.22c.556-1-.411-1.645-1.082-2.243a3.608,3.608,0,0,0-.85-.452.554.554,0,0,1-.254-.811c.139-.3.424-.263.682-.123a4.344,4.344,0,0,0,2.051.318,9.411,9.411,0,0,1,4.61.925c.486.269,1.342,1.8,2.29.351.291.355.605.492.974.1a5.928,5.928,0,0,1,1.959.173l.5.143c.583.264,1.214.707,1.434-.379v0c.168-.079.608.094.425-.3m-101.014,7.158c.157-.138.313-.275.545-.166l-.545.166m13.605-5.186c-.006.006-.014.01-.02.016a2.434,2.434,0,0,1-.6.093,4.83,4.83,0,0,1,.553-.107,1.376,1.376,0,0,1,1.011-.242,1.342,1.342,0,0,0-.946.24m1.567-.345a1.425,1.425,0,0,1-.314.078.985.985,0,0,0,.181-.053c-.116-.182.232-.036.132-.025m2.226-.348c.446-.237.852-.784,1.657-.125l-1.657.125m1.945-.452a1.218,1.218,0,0,1,1.426-.492,1.27,1.27,0,0,1-1.426.492m3.957-5.46a3.317,3.317,0,0,0-.657.121c-.081.026-.164.046-.246.069l-.01-.01a3.265,3.265,0,0,0,.843-.359.546.546,0,0,0,.086-.368c.238.13.476.384.714.484-.242.023-.486.042-.729.063m2.194,14.3-.39-.025c.32-.551.893-.185,1.316-.362-.061.721-.632.223-.926.387m5.686-16.13c-.059.18-.174.148-.369.059.164-.071.33-.137.5-.194a.923.923,0,0,0-.13.135m28.614,12.182v0a.433.433,0,0,0-.054-.064,8.1,8.1,0,0,0-1-.412c.54.017,1.042-.013,1.521-.038a2.017,2.017,0,0,0-.471.512m2.258-.287a.84.84,0,0,0-.7.042c-.03.015-.058.032-.087.047a1.278,1.278,0,0,0-.308-.337,5.4,5.4,0,0,1,1.208.1c-.04.048-.079.1-.117.152m1.3-16.81c-.348.559-.967.181-1.586.7.473-1.059.987-1.038,1.586-.7l.009-.013.007.023-.016-.009M928.232,293c-.639.752-1.415.421-2.173.328l2.173-.328m-2.845.225c-.547.645-1.048.684-1.979.485l1.979-.485m3.682,1.611c.043.437-.359.482-.593.676-.465-.211-.767-.739-1.36-.7l-1.3.046-1.266-.054a4.612,4.612,0,0,1-2.265.34.489.489,0,0,1-.646.285c-.061-.019-.143-.17-.121-.219.157-.352.472-.376.8-.346l2.229-.285,1.555-.128c.677-.611,1.334.023,2,.034-.19-.476-.041-.693.479-.629.658.081.79.42.485.978m2.905.612c-.4.037-.8.34-1.224-.04.278-.808,1-.534,1.564-.637l-.341.678m13.918,7c-1.47.3-2.948.57-4.843.924,1.437-1.866,2.87-2.3,4.616-1.825.241.066.592.062.554.431-.018.172-.186.441-.327.47" transform="translate(-602.919 -216.777)"/><path class="g" d="M1038.657,295.418c.41-.594.928-.11,1.386-.169.246-.032,1.068.026.539-.725a.879.879,0,0,1-.782.008.808.808,0,0,0,.169-.132c.168-.408.814-.044.973-.655-1.019.244-2.05-.349-2.953.372l-.3.6-.452.554a1.751,1.751,0,0,0,1.422.147" transform="translate(-707.321 -218.349)"/><path class="g" d="M1048.866,292.469c.138.015.329-.029.206-.318a.981.981,0,0,0-.347-.177c-.171-.017-.315.12-.224.293a.519.519,0,0,0,.365.2" transform="translate(-713.46 -217.382)"/><path class="g" d="M905.44,311.022l1.088-.184c-.374-.516-.706-.659-1.131-.284-.409.218-1.035-.154-1.293.472a1.04,1.04,0,0,0,1.336,0" transform="translate(-634.588 -227.418)"/><path class="g" d="M904.042,311.8l.025.027,0-.006c-.01-.008-.019-.013-.029-.021" transform="translate(-634.555 -228.216)"/><path class="g" d="M902.279,311.88l-1.446.323c.612.231,1.229.467,1.446-.323" transform="translate(-632.801 -228.258)"/><path class="g" d="M904.031,311.8c0,.012-.007.022-.01.034l.036-.008-.025-.026" transform="translate(-634.543 -228.217)"/><path class="g" d="M875.808,325.791l-1.278.176a.881.881,0,0,0,1.278-.176" transform="translate(-618.431 -235.858)"/><path class="g" d="M1066.373,331.294a1.112,1.112,0,0,0,1.566-.01c-.652-.328-1.081-.416-1.566.01" transform="translate(-723.24 -238.706)"/><path class="g" d="M962.27,339.866c-.485.075-1.088-.216-1.492.516l1.469-.2a1.407,1.407,0,0,0,1.461-.514,1.508,1.508,0,0,0-1.438.2" transform="translate(-665.551 -243.383)"/><path class="f" d="M953.372,225.131a16.539,16.539,0,0,0,2.858,1.341,38.143,38.143,0,0,0,14.264,2.571,26.608,26.608,0,0,0,7.51-1.008,11.948,11.948,0,0,0,6.164-3.964,7.209,7.209,0,0,0,1.514-5.966,6.668,6.668,0,0,0-1.671-3.272,9.673,9.673,0,0,0-5.673-2.949,18.457,18.457,0,0,0-7.082.255,28.432,28.432,0,0,0-4.723,1.416,44.921,44.921,0,0,0-4.174,1.954c-2.245,1.161-4.448,2.4-6.688,3.573-3.183,1.664-6.362,3.339-9.583,4.927a62.538,62.538,0,0,1-10.555,4.248,17.07,17.07,0,0,1-5.512.766,8.047,8.047,0,0,1-5.2-2.123,4.7,4.7,0,0,1-.417-.5l.105-.126a4.54,4.54,0,0,1,.532.359,7.786,7.786,0,0,0,4.039,1.8,12.056,12.056,0,0,0,4.458-.308,42.738,42.738,0,0,0,8.828-3.114c1.511-.671,3.011-1.369,4.488-2.111,2.02-1.016,4.084-1.941,6.084-3s3.986-2.081,5.991-3.1c2.2-1.118,4.391-2.271,6.64-3.291a34.92,34.92,0,0,1,4.145-1.439c.883-.273,1.8-.428,2.706-.642a16.442,16.442,0,0,1,4.637-.267,10.687,10.687,0,0,1,6.76,2.572,7.4,7.4,0,0,1,2.606,6.726,8.577,8.577,0,0,1-3.394,5.8,14.135,14.135,0,0,1-6.073,2.775,35.272,35.272,0,0,1-13.337.044,36.071,36.071,0,0,1-9.261-2.973,5.963,5.963,0,0,1-1.286-.83Z" transform="translate(-645.678 -173.212)"/><path class="f" d="M944.211,236.183c-2.845,1.3-5.735,2.5-8.549,3.858-2.737,1.322-5.409,2.779-8.095,4.2a30.551,30.551,0,0,1-6.251,2.638,11.2,11.2,0,0,1-6.275.158,7.222,7.222,0,0,1-4.352-3.625,8.786,8.786,0,0,1-1.057-3.062,7.358,7.358,0,0,1,1.6-5.661,9.778,9.778,0,0,1,4.183-2.976,20.921,20.921,0,0,1,7.429-1.4,57.853,57.853,0,0,1,10.978.731,21.128,21.128,0,0,1,4.936,1.247,5.31,5.31,0,0,0,.657.174.669.669,0,0,1-.723.148,40.135,40.135,0,0,0-8.063-1.413,63.315,63.315,0,0,0-7.053-.24,21.913,21.913,0,0,0-7.891,1.426,9.364,9.364,0,0,0-3.678,2.514,6.783,6.783,0,0,0-.944,7.8,6.868,6.868,0,0,0,3.613,3.569,8.669,8.669,0,0,0,4.726.473,24.4,24.4,0,0,0,7.486-2.651c3.444-1.816,6.865-3.683,10.352-5.415,2.613-1.3,5.285-2.489,7.985-3.6a53.359,53.359,0,0,1,8.7-2.786,27.364,27.364,0,0,1,6.145-.733,9.7,9.7,0,0,1,4.694,1.137,3.608,3.608,0,0,1,1.657,1.726.914.914,0,0,1-.237-.132,7.686,7.686,0,0,0-5.619-2.2,24.884,24.884,0,0,0-6.523.8,66.29,66.29,0,0,0-7.751,2.455c-.309.114-1.667.635-2.084.825" transform="translate(-637.571 -183.685)"/><path class="d" d="M983.28,301.961a2.262,2.262,0,0,0-2.687-.3,3.332,3.332,0,0,0-1.821,2.136,34.611,34.611,0,0,0-1.261,8.766c-.051,1.066-.464,2.233.5,3.662.192-1.728.354-3.056.485-4.387a2.442,2.442,0,0,1,1.212-2.076,10.667,10.667,0,0,0,4.089-5.284,2.126,2.126,0,0,0-.517-2.517m-.69,2.428a15.27,15.27,0,0,1-3.543,4.789,11.665,11.665,0,0,1,1.374-5.918c.367-.651,1.052-1.238,1.85-.848.862.421.639,1.279.319,1.977" transform="translate(-674.621 -222.509)"/><path class="d" d="M928.913,310.093a.247.247,0,0,0-.373-.035c-1.233,1.714-1.319,3.8-1.856,5.742-.186.671-.25,1.124-1.18,1.116-1.892-.015-2.264,1.566-2.592,2.963a2.718,2.718,0,0,0,1.475,3.247c1.114.583,2.607-.056,2.667-1.146A47.683,47.683,0,0,1,929,311.257c.126-.434.316-.8-.083-1.164m-2.659,8.875c-.022.427-.051.853-.077,1.28l.053.006c-.05.368-.1.737-.15,1.107-.058.471.314,1.253-.535,1.216a1.5,1.5,0,0,1-1.522-1.2,4.294,4.294,0,0,1,.619-2.921,1.123,1.123,0,0,1,1.176-.673c.673.146.459.726.435,1.186" transform="translate(-644.811 -227.224)"/><path class="d" d="M1034.184,311.147c-.659-.4-1.026.377-1.423.766a10.771,10.771,0,0,0-2.214,3.72c-.273.651-.486,1.288.224,1.7a1.4,1.4,0,0,0,1.871-.452c.49-.607.884-1.291,1.556-2.294a6.314,6.314,0,0,0,.965,3.541c.106-1.908.163-3.517.3-5.12.084-1-.636-1.479-1.275-1.864m-2.437,4.957a7.994,7.994,0,0,1,2-3.659,6.542,6.542,0,0,1-2,3.659" transform="translate(-703.527 -227.797)"/><path class="d" d="M945.245,324.584a1.813,1.813,0,0,0-1.138-1.607c-.665-.368-1.071.223-1.482.639a10.8,10.8,0,0,0-2.219,3.7c-.246.614-.646,1.249.087,1.7a1.453,1.453,0,0,0,2.006-.407c.482-.6.878-1.278,1.5-2.2.185,1.3.089,2.337,1.243,3.107,0-1.645-.01-3.29,0-4.934M941.5,328.2a7.456,7.456,0,0,1,1.908-3.794A7.1,7.1,0,0,1,941.5,328.2" transform="translate(-654.239 -234.257)"/><path class="d" d="M998.252,312.325a.451.451,0,0,1,.438.37c.055.323-.133.525-.424.487a.609.609,0,0,1-.367-.426.375.375,0,0,1,.353-.431" transform="translate(-685.828 -228.501)"/><path class="d" d="M1018.663,317.849c.831-.037,1.388-.382,2.118-.09-.443.27-.8.517-1.187.716-.762.395-1.62.617-2.213-.136-.566-.717.332-1.116.662-1.587.98-1.4,2.285-2.583,2.8-4.392-1.122-.261-1.832.7-2.79.956.253-1.426,2.693-2.515,3.6-1.673.588.543.225,1.19-.014,1.786-.65,1.624-1.935,2.831-2.975,4.419" transform="translate(-696.374 -227.968)"/><path class="d" d="M1008.236,313.967c-1.244-.113-1.91.776-2.853.986.221-1.36,2.6-2.492,3.549-1.714.706.583.284,1.286.036,1.914-.635,1.609-1.956,2.776-2.858,4.243.7.254,1.289-.469,2.005-.029-.461.291-.882.6-1.337.836a1.49,1.49,0,0,1-1.932-.127c-.739-.767.178-1.137.487-1.584.994-1.439,2.35-2.644,2.9-4.526" transform="translate(-689.473 -228.861)"/><path class="d" d="M995,324.725c-.617-1.993.148-3.829.536-5.7.046-.223.191-.537.536-.472a.459.459,0,0,1,.355.608A23.3,23.3,0,0,1,995,324.725" transform="translate(-684.12 -231.899)"/><path class="f" d="M1029.68,260a.681.681,0,0,1-.841.526c-.355-.036-.6-.206-.552-.612.063-.483.442-.562.819-.54a.564.564,0,0,1,.574.625" transform="translate(-702.428 -199.57)"/><path class="f" d="M900.3,270.152a14.239,14.239,0,0,0,1.576-1.288c1.031-1.13,2.045-2.278,3.017-3.459a5.85,5.85,0,0,1,2.557-1.987,9.146,9.146,0,0,1,2.125-.431c.637-.035.765.194.785.477.034.418-.323.52-.655.6-.567.137-1.145.241-1.7.423a4.632,4.632,0,0,0-2.76,5.538,2.386,2.386,0,0,0,1.891,1.778,2.308,2.308,0,0,0,2.433-1.128,3.5,3.5,0,0,0,.569-3.27,3.359,3.359,0,0,0-.79-1.028c-.192-.177-.619-.309-.281-.741a.609.609,0,0,1,.794-.191c.254.1.551.176.828.264a3.121,3.121,0,0,0,4.329-2.9,7.211,7.211,0,0,1,.3-1.781.848.848,0,0,1,1.07-.509.927.927,0,0,1,.649,1.095,7.024,7.024,0,0,1-.681,1.51,5.683,5.683,0,0,0,1.531-.472c.242-.11.775-.482,1.172-.665a.764.764,0,0,1,1,.112.821.821,0,0,1,0,1.017,22.6,22.6,0,0,0-1.127,2.122,13.58,13.58,0,0,0-.748,2.5,1.581,1.581,0,0,0,.787,1.781,1.726,1.726,0,0,0,2.049-.179,18.444,18.444,0,0,0,1.788-1.628,28.182,28.182,0,0,0,3.947-5.89,4.207,4.207,0,0,1,.616-.889.647.647,0,0,1,.891-.124c.343.225.317.531.191.869-.436,1.161-.889,2.316-1.285,3.491a7.134,7.134,0,0,0-.369,1.592,1.25,1.25,0,0,0,.674,1.309,1.232,1.232,0,0,0,1.322-.257,12.906,12.906,0,0,0,2.892-2.785c1.015-1.146,1.783-2.456,2.757-3.639a7.134,7.134,0,0,1,3.589-2.571,6.356,6.356,0,0,1,1.617-.16.482.482,0,0,1,.531.376.473.473,0,0,1-.3.587,2.623,2.623,0,0,1-.92.083,3.693,3.693,0,0,0-3.1,1.77,5.665,5.665,0,0,0-.949,2.984,2.9,2.9,0,0,0,.894,2.275,2.164,2.164,0,0,0,2.807.235c1.615-1.127,2.281-3.151.634-4.755a2.6,2.6,0,0,1-.223-.241c-.213-.269-.424-.6-.108-.862a.876.876,0,0,1,.786-.04,3.925,3.925,0,0,0,4.9-.8c.185-.171.509-.489.777-.423.319.121-.044.588-.16.728a4.594,4.594,0,0,1-2.733,1.686c-1.254.241-1.539.384-1.351,1.732a4.833,4.833,0,0,1-2.737,5,3.292,3.292,0,0,1-4.762-2.164,8.024,8.024,0,0,1-.2-2.543,10.682,10.682,0,0,1-.928,1.254,16.655,16.655,0,0,1-2.362,2.609,7.8,7.8,0,0,1-1.492,1.092,2.085,2.085,0,0,1-3.326-1.467,7.061,7.061,0,0,1,.061-1.873c-.322.372-.89,1.125-1.1,1.376a28.155,28.155,0,0,1-2.781,2.942,4.2,4.2,0,0,1-1.886.821,2.533,2.533,0,0,1-3.137-2.7,15.457,15.457,0,0,1,.648-2.866c.136-.519.345-1.018.545-1.6a2.472,2.472,0,0,0-1.961.809,4.243,4.243,0,0,1-3.216,2.01c-1.036.191-1.416.3-1.214,1.577a4.766,4.766,0,0,1-1.852,4.455,3.725,3.725,0,0,1-3.609.662,3.073,3.073,0,0,1-2.138-2.774c-.061-.53-.1-1.063-.166-1.868a69.587,69.587,0,0,1-5.975,5.063,3.488,3.488,0,0,1-2.136.721,1.7,1.7,0,0,1-1.558-1.171,1.355,1.355,0,0,1,1.145-1.849c.613-.074,1.241-.02,1.857-.078a2.924,2.924,0,0,0,2.784-2.362c.094-.353.192-.7.261-1.063a1.451,1.451,0,0,0-.585-1.547,1.384,1.384,0,0,0-1.554.018,10.12,10.12,0,0,0-3.648,3.554,22.306,22.306,0,0,0-3.09,8.356,38.489,38.489,0,0,0-.436,3.873c-.067,1.09.049,2.229-.032,3.317-.049.65-.339.963-.823.968a.82.82,0,0,1-.888-.923,111.49,111.49,0,0,1,2.185-13.563c-.423.289-1.8,1.616-2.35,2.088a4.786,4.786,0,0,1-1.37.866,1.889,1.889,0,0,1-2.774-1.866c-.029-.726.072-1.456.075-2.184,0-.493.139-1.092-.452-1.351-.353-.132-.886.224-1.239.514a25.722,25.722,0,0,0-4.754,5.263c-.083.12-.147.252-.225.376-.269.427-.594.761-1.161.584-.536-.167-.579-.631-.546-1.071.081-1.088.2-2.175.318-3.26.057-.5.241-1.1-.165-1.424-.363-.294-1.008.189-1.407.5a33.008,33.008,0,0,0-5.515,5.6,4.1,4.1,0,0,1-.558.671c-.177.143-.51.315-.643.241a.951.951,0,0,1-.428-.662,4.6,4.6,0,0,1,.157-1.187c.1-.383.4-1.5.47-1.923-.4.425-1.091,1.337-1.306,1.6a26.61,26.61,0,0,1-7.456,6.676,12.169,12.169,0,0,1-5.7,1.734,7.222,7.222,0,0,1-7.338-4.958,12.576,12.576,0,0,1-.247-6.378c.059-.372.106-1.174.207-1.649a20.659,20.659,0,0,0-1.972.921,3.407,3.407,0,0,1,.284-1.453c.519-.216,1.668-.853,2.195-1.075,0,0,.478-.907.777-1.572a28.451,28.451,0,0,1,5.525-7.833c.576-.607,1.166-1.2,1.788-1.763.469-.421.5-.391,1.42-.188-.393.451-.729.856-1.085,1.24a35.071,35.071,0,0,0-6.014,8.165c-.129.261-.254.526-.36.8-.035.092-.229.415-.323.637.3-.081.9-.291,1.148-.375,2.664-.885,5.311-1.824,7.992-2.653a18.737,18.737,0,0,1,5.369-.941c.37,0,.921-.138.944.448.021.536-.493.556-.891.578-4.071.223-7.83,1.624-11.582,3.055-.885.337-1.759.7-2.646,1.03a8.994,8.994,0,0,0-.88.344s-.111.642-.15.959c-.286,2.332-.4,4.619.719,6.843a7.107,7.107,0,0,0,7.443,3.572,17.577,17.577,0,0,0,9.077-5.584,27.366,27.366,0,0,0,4.165-5.743c.552-1.061.779-1.16,1.874-1.176-.285,1.494-1.235,3.194-1.254,4.974a3.513,3.513,0,0,0,.72-.554c.8-.7,1.543-1.453,2.369-2.111.909-.724,2.878-2.243,3.543-2.309.814-.157,1.282.173,1.342,1a15.018,15.018,0,0,1-.035,1.748c-.019.429-.088,1.122-.142,1.822.364-.364.691-.628.862-.8a29.307,29.307,0,0,1,4.859-4.322,3.372,3.372,0,0,1,.973-.312c.839-.143,1.292.107,1.4.956a23.285,23.285,0,0,1,.06,2.614,4.992,4.992,0,0,0,.052,1.185.955.955,0,0,0,1.539.605,8.453,8.453,0,0,0,1.395-1.22,28.8,28.8,0,0,0,5.408-7.912,9.246,9.246,0,0,1,.825-1.412,1,1,0,0,1,.628-.363c.462-.058.628.391.353.962-.521,1.084-1.064,2.159-1.586,3.243-.085.177-.307.72-.478,1.154.281-.25,1.008-.989,1.294-1.234.608-.52,1.233-1.035,1.884-1.493a2.122,2.122,0,0,1,2.461-.247,2.637,2.637,0,0,1,1.224,2.524,5.711,5.711,0,0,1-.85,2.567" transform="translate(-602.11 -198.685)"/><path class="f" d="M872.173,247.5c-1.795.02-3.2-.088-8.706,1.537a35.4,35.4,0,0,0-6.678,2.951,2.2,2.2,0,0,0-1.375,1.928c-.025.619-.363.87-.8.786a.794.794,0,0,1-.547-1.19,6.055,6.055,0,0,1,1.426-1.61,23.783,23.783,0,0,1,5.68-3,29.4,29.4,0,0,1,7.128-2.01,26.067,26.067,0,0,1,4.459-.264,4.418,4.418,0,0,1,1.662.469,1.4,1.4,0,0,1,.315,2.425,4.6,4.6,0,0,1-1.908.961.4.4,0,0,1-.453-.26.347.347,0,0,1,.152-.455c.3-.192.65-.266.97-.483a1.059,1.059,0,0,0,.582-.808,1.109,1.109,0,0,0-.628-.763,2.951,2.951,0,0,0-1.275-.211" transform="translate(-607.184 -192.597)"/><path class="f" d="M983.722,265.269a.4.4,0,0,1-.111-.624,5.228,5.228,0,0,0,1.216-2.031c.039-.2.261-.2.478-.086a.448.448,0,0,1,.275.514,3.363,3.363,0,0,1-1.34,2.089c-.175.141-.371.237-.519.137" transform="translate(-677.968 -201.254)"/><path class="h" d="M956.708,499.715c-.108-.232-.216-.936-.805-.407l-.933.379a.2.2,0,0,1-.1.086l.1-.086-1.241-.058a3.5,3.5,0,0,0-2-.27l-.014,0,.01-.011,0,.007.014-.027h-.028c-.192-.431-.6-.282-.931-.319-.112-.584-1.018-.3-1.083-.945,2.033-1.219,2.033-1.219,2.962-.92.621.486,1.088.415,1.354-.375-.129-.884-.214-1.013-.447-.86-1.339.876-2.739-.494-4.061.161-.114-.649-.395-.971-1.06-.543a.122.122,0,0,1-.044.076l.044-.076c-.438-.339-1.329-.686-.308-1.23.577-.307.114-1.106.823-1.2.178-.024.438-.168.266-.446a.54.54,0,0,0-.676-.269,9.543,9.543,0,0,1-6.129-.061c.754.185.281-.646.822-.8,1.212-.339.348-1.216.005-1.339-1.812-.651-3.395-2.3-5.612-1.393a5.236,5.236,0,0,1-1.425.162c-.972-.826-1.948.276-2.921-.005-.179-.132-.274-.44-.586-.293a.674.674,0,0,0,.014-.175c-.191-.416-.577-.474-.968-.524-.171-.015-.343-.015-.516-.018a1.023,1.023,0,0,0,.429-.253l-.032-.03c.586-.258.074-.639.108-.959-.24-.34-.483-.007-.724,0a.58.58,0,0,0-.7-.273l-1.942.055c0-1.187,1.276-.746,1.929-1.431-.892,0-1.589.054-2.274-.014-.868-.086-.9.44-.9,1.05a13.945,13.945,0,0,1-2.6.339c-1-.069,0,.379-.084.572a14.634,14.634,0,0,0-4,.265,54.576,54.576,0,0,1-11.089,1.362c-4.626.1-9.14,1.254-13.709,1.908-1.264.181-2.443.877-3.772.619-.931.686-1.568,1.706-1.672,1.627a.308.308,0,0,1-.019.072l-1.594.032c.455-.512,1.15-.289,1.694-.352l.143-.3c.088-.443.067-.561.155-1a90.846,90.846,0,0,0-9.089,1.7,3.655,3.655,0,0,0-2.669,1.2.248.248,0,0,0-.224.128,11.887,11.887,0,0,0-2.609.591,2.391,2.391,0,0,0-1.31.352c-.891.069-1.836-.02-2.449.851l-.788.064c-.57-.681-.916-.21-1.406.313h1.094q0,.327.006.654l-.014,0s0,.008.007.012c-.375.14-.8-.548-1.111.057-.043.085.285.359.442.546a27.014,27.014,0,0,0-4.494,1.106,1.017,1.017,0,0,0,.1.217c.027.035.1.034.15.05q.016.292.033.583l-.624.345c-.463-.015-.942-.058-1.016.594-1.908.7-3.989.934-5.881,1.958a2.983,2.983,0,0,0,2.735.182,19.249,19.249,0,0,1,6.413-.857q-.008.161-.01.323c-.085.11-.535.049-.211.336.211.187.637-.021.828.323l-1.514.411-1.683-.016.066.063a.228.228,0,0,1-.066-.063,2.537,2.537,0,0,0-2.27.984,11.525,11.525,0,0,0-4.83,1.595c-1.726-.816-3.032.52-4.577.691.466.789,1.3-.41,1.632.563-.7.25-1.381.54-2.091.743-1.985.568-3.378,2.246-5.352,2.823-.607.046-1.277-.088-1.689.545.452.435.965-.615,1.374.115-.427.453-.328.666.283.537,1.516-.321,3.011-.764,4.54-.99,1.615-.238,3.2-.9,4.856-.762l.088.416-3.256,1.153c-.236-.073-.463-.318-.719-.069s.053.478.069.719c-1.195.94-2.979,1.145-3.878,2.994,4.991-1.024,9.636-2.029,14.318-2.851,3.318-.583,6.542-1.649,9.887-2.145l.351.352-.394.188c.45-.125.719,1.121,1.278.168l.108-.343c.762-.316,1.475.5,2.241.1.476-.21,1.083.076,1.489-.4a6.688,6.688,0,0,0,2.747-.6c.548-.1,1.141-.007,1.619-.392h0l.749-.312h0c.406.566.792.089,1.185-.023,2.65-.53,5.3-1.068,7.95-1.589a93.921,93.921,0,0,1,12.436-1.641c.42.75.86.79,1.323.037,2.9.094,5.8.595,8.689-.088l.989.056c.345.99.977.728,1.63.374a3.153,3.153,0,0,0,1.6-.429,1.611,1.611,0,0,0,.478.029c4.036-1.016,8.219-.446,12.309-1.157,1.7-.295,3.476-.054,5.029-1.058.426-.2.892,1.267,1.291-.032-.12-.543.438-.62.644-.94l1.569-.082.347.342a1.466,1.466,0,0,0-.157.227c-.015.032.032.133.051.133a2.866,2.866,0,0,0,2.716-1.219c.556-1-.411-1.645-1.082-2.243a3.613,3.613,0,0,0-.85-.452.554.554,0,0,1-.254-.811c.139-.3.424-.263.682-.123a4.345,4.345,0,0,0,2.051.318,9.411,9.411,0,0,1,4.61.925c.486.269,1.342,1.8,2.29.351.291.355.605.492.974.1h0a5.926,5.926,0,0,1,1.959.173l.5.143c.583.265,1.214.707,1.434-.379v0c.168-.078.608.094.425-.3m-101.014,7.158c.157-.138.313-.275.545-.167l-.545.167m13.605-5.187c-.006.006-.014.01-.02.016a2.435,2.435,0,0,1-.6.093,4.824,4.824,0,0,1,.553-.107,1.376,1.376,0,0,1,1.011-.242,1.342,1.342,0,0,0-.946.24m1.567-.345a1.43,1.43,0,0,1-.314.078.983.983,0,0,0,.181-.053c-.116-.182.232-.036.132-.024m2.226-.348c.446-.237.852-.784,1.657-.125l-1.657.125m1.945-.452a1.218,1.218,0,0,1,1.426-.492,1.271,1.271,0,0,1-1.426.492m3.957-5.46a3.317,3.317,0,0,0-.657.121c-.081.026-.164.046-.246.069l-.01-.01a3.268,3.268,0,0,0,.843-.359.547.547,0,0,0,.086-.368c.238.13.476.384.714.484-.242.023-.486.042-.729.064m2.194,14.3-.39-.025c.32-.551.893-.185,1.316-.362-.061.721-.632.223-.926.387m5.686-16.13c-.059.18-.174.148-.369.059.164-.071.33-.137.5-.194a.921.921,0,0,0-.13.135m28.614,12.182v0a.431.431,0,0,0-.054-.064,8.1,8.1,0,0,0-1-.412c.54.017,1.042-.013,1.521-.038a2.019,2.019,0,0,0-.471.512m2.258-.287a.84.84,0,0,0-.7.042c-.03.015-.058.032-.087.047a1.28,1.28,0,0,0-.308-.337,5.4,5.4,0,0,1,1.208.1c-.04.048-.079.1-.117.152m1.3-16.81c-.348.559-.967.181-1.586.7.473-1.059.987-1.039,1.586-.7l.009-.013.007.023-.016-.01m9.185-1.174c-.639.752-1.415.421-2.173.328l2.173-.328m-2.845.225c-.547.645-1.048.684-1.979.485l1.979-.485m3.682,1.611c.043.437-.359.482-.593.676-.465-.211-.767-.739-1.36-.7l-1.3.046-1.266-.054a4.612,4.612,0,0,1-2.265.34.489.489,0,0,1-.646.285c-.061-.019-.143-.17-.121-.219.157-.352.472-.376.8-.346l2.229-.285,1.555-.128c.677-.611,1.333.023,2,.034-.19-.476-.041-.693.479-.629.658.081.79.42.485.978m2.905.612c-.4.037-.8.34-1.224-.04.278-.808,1-.534,1.564-.637l-.341.678m13.918,7c-1.47.3-2.948.57-4.843.924,1.437-1.866,2.87-2.3,4.616-1.825.241.066.592.062.554.431-.018.172-.186.44-.327.47" transform="translate(-602.919 -322.851)"/><path class="h" d="M1038.657,489.578c.41-.594.927-.11,1.386-.169.246-.032,1.068.026.539-.725a.879.879,0,0,1-.782.008.818.818,0,0,0,.169-.132c.168-.408.814-.044.973-.655-1.019.244-2.05-.349-2.953.372l-.3.6-.452.554a1.751,1.751,0,0,0,1.422.147" transform="translate(-707.321 -324.423)"/><path class="h" d="M1048.866,486.629c.138.015.329-.029.206-.318a.981.981,0,0,0-.347-.177c-.171-.017-.315.12-.224.293a.519.519,0,0,0,.365.2" transform="translate(-713.46 -323.456)"/><path class="h" d="M905.44,505.182l1.088-.184c-.374-.516-.706-.659-1.131-.284-.409.218-1.035-.154-1.293.472a1.04,1.04,0,0,0,1.336,0" transform="translate(-634.588 -333.492)"/><path class="h" d="M904.042,505.964l.025.027,0-.006c-.01-.008-.019-.013-.029-.021" transform="translate(-634.555 -334.29)"/><path class="h" d="M902.279,506.041l-1.446.323c.612.23,1.229.467,1.446-.323" transform="translate(-632.801 -334.332)"/><path class="h" d="M904.031,505.965c0,.013-.007.023-.01.034l.036-.008-.025-.027" transform="translate(-634.543 -334.291)"/><path class="h" d="M875.808,519.951l-1.278.176a.881.881,0,0,0,1.278-.176" transform="translate(-618.431 -341.932)"/><path class="h" d="M1066.373,525.454a1.112,1.112,0,0,0,1.566-.01c-.652-.328-1.081-.416-1.566.01" transform="translate(-723.24 -344.78)"/><path class="h" d="M962.27,534.027c-.485.075-1.088-.216-1.492.516l1.469-.2a1.406,1.406,0,0,0,1.461-.514,1.508,1.508,0,0,0-1.438.2" transform="translate(-665.551 -349.457)"/><path class="f" d="M953.372,419.291a16.535,16.535,0,0,0,2.858,1.341,38.146,38.146,0,0,0,14.264,2.572A26.612,26.612,0,0,0,978,422.2a11.949,11.949,0,0,0,6.164-3.964,7.209,7.209,0,0,0,1.514-5.966,6.666,6.666,0,0,0-1.671-3.272,9.671,9.671,0,0,0-5.673-2.949,18.457,18.457,0,0,0-7.082.255,28.434,28.434,0,0,0-4.723,1.416,44.961,44.961,0,0,0-4.174,1.954c-2.245,1.161-4.448,2.4-6.688,3.573-3.183,1.664-6.362,3.339-9.583,4.927a62.535,62.535,0,0,1-10.555,4.248,17.072,17.072,0,0,1-5.512.766,8.047,8.047,0,0,1-5.2-2.123,4.7,4.7,0,0,1-.417-.5l.105-.126a4.543,4.543,0,0,1,.532.359,7.785,7.785,0,0,0,4.039,1.8,12.056,12.056,0,0,0,4.458-.308,42.753,42.753,0,0,0,8.828-3.114c1.511-.671,3.011-1.369,4.488-2.111,2.02-1.016,4.084-1.941,6.084-3s3.986-2.081,5.991-3.1c2.2-1.118,4.391-2.271,6.64-3.291a34.925,34.925,0,0,1,4.145-1.44c.883-.273,1.8-.428,2.706-.641a16.447,16.447,0,0,1,4.637-.267,10.688,10.688,0,0,1,6.76,2.572,7.4,7.4,0,0,1,2.606,6.726,8.577,8.577,0,0,1-3.394,5.8,14.137,14.137,0,0,1-6.073,2.775,35.274,35.274,0,0,1-13.337.044,36.072,36.072,0,0,1-9.261-2.973,5.96,5.96,0,0,1-1.286-.83Z" transform="translate(-645.678 -279.286)"/><path class="f" d="M944.211,430.343c-2.845,1.3-5.735,2.5-8.549,3.858-2.737,1.322-5.409,2.779-8.095,4.2a30.551,30.551,0,0,1-6.251,2.638,11.2,11.2,0,0,1-6.275.158,7.222,7.222,0,0,1-4.352-3.625,8.787,8.787,0,0,1-1.057-3.062,7.358,7.358,0,0,1,1.6-5.661,9.777,9.777,0,0,1,4.183-2.976,20.92,20.92,0,0,1,7.429-1.4,57.856,57.856,0,0,1,10.978.731,21.128,21.128,0,0,1,4.936,1.247,5.321,5.321,0,0,0,.657.174.669.669,0,0,1-.723.148,40.137,40.137,0,0,0-8.063-1.413,63.308,63.308,0,0,0-7.053-.24,21.914,21.914,0,0,0-7.891,1.426,9.365,9.365,0,0,0-3.678,2.514,6.783,6.783,0,0,0-.944,7.8,6.868,6.868,0,0,0,3.613,3.569,8.669,8.669,0,0,0,4.726.473,24.4,24.4,0,0,0,7.486-2.651c3.444-1.816,6.865-3.683,10.352-5.415,2.613-1.3,5.285-2.489,7.985-3.6a53.365,53.365,0,0,1,8.7-2.786,27.364,27.364,0,0,1,6.145-.733,9.7,9.7,0,0,1,4.694,1.137,3.607,3.607,0,0,1,1.657,1.726.916.916,0,0,1-.237-.132,7.686,7.686,0,0,0-5.619-2.2,24.887,24.887,0,0,0-6.523.8,66.3,66.3,0,0,0-7.751,2.455c-.309.114-1.667.635-2.084.825" transform="translate(-637.571 -289.759)"/><path class="d" d="M983.28,496.121a2.262,2.262,0,0,0-2.687-.3,3.332,3.332,0,0,0-1.821,2.136,34.61,34.61,0,0,0-1.261,8.766c-.051,1.066-.464,2.233.5,3.662.192-1.728.354-3.056.485-4.387a2.442,2.442,0,0,1,1.212-2.076,10.667,10.667,0,0,0,4.089-5.284,2.126,2.126,0,0,0-.517-2.517m-.69,2.428a15.272,15.272,0,0,1-3.543,4.789,11.665,11.665,0,0,1,1.374-5.918c.367-.652,1.052-1.238,1.85-.848.862.422.639,1.279.319,1.977" transform="translate(-674.621 -328.583)"/><path class="d" d="M928.913,504.253a.247.247,0,0,0-.373-.035c-1.233,1.714-1.319,3.8-1.856,5.742-.186.671-.25,1.124-1.18,1.117-1.892-.015-2.264,1.566-2.592,2.963a2.718,2.718,0,0,0,1.475,3.247c1.114.583,2.607-.056,2.667-1.146A47.684,47.684,0,0,1,929,505.417c.126-.434.316-.8-.083-1.164m-2.659,8.875c-.022.427-.051.853-.077,1.28l.053.006c-.05.368-.1.737-.15,1.107-.058.471.314,1.253-.535,1.216a1.5,1.5,0,0,1-1.522-1.2,4.294,4.294,0,0,1,.619-2.921,1.123,1.123,0,0,1,1.176-.673c.673.146.459.726.435,1.186" transform="translate(-644.811 -333.298)"/><path class="d" d="M1034.184,505.307c-.659-.4-1.026.377-1.423.766a10.783,10.783,0,0,0-2.214,3.72c-.273.65-.485,1.288.225,1.7a1.4,1.4,0,0,0,1.871-.452c.49-.607.884-1.291,1.556-2.294a6.317,6.317,0,0,0,.965,3.541c.106-1.908.163-3.517.3-5.12.084-1-.636-1.479-1.275-1.864m-2.437,4.957a7.992,7.992,0,0,1,2-3.659,6.542,6.542,0,0,1-2,3.659" transform="translate(-703.527 -333.871)"/><path class="d" d="M945.245,518.745a1.813,1.813,0,0,0-1.138-1.606c-.665-.368-1.071.223-1.482.639a10.8,10.8,0,0,0-2.219,3.7c-.246.614-.646,1.249.087,1.7a1.453,1.453,0,0,0,2.006-.408c.482-.6.878-1.278,1.5-2.2.185,1.3.089,2.337,1.243,3.107,0-1.645-.01-3.29,0-4.934m-3.745,3.614a7.457,7.457,0,0,1,1.908-3.794,7.1,7.1,0,0,1-1.908,3.794" transform="translate(-654.239 -340.332)"/><path class="d" d="M998.252,506.485a.451.451,0,0,1,.438.37c.055.323-.133.525-.424.487a.609.609,0,0,1-.367-.426.375.375,0,0,1,.353-.431" transform="translate(-685.828 -334.575)"/><path class="d" d="M1018.663,512.009c.831-.037,1.388-.381,2.118-.09-.443.27-.8.517-1.187.716-.762.395-1.62.617-2.213-.136-.566-.717.332-1.116.662-1.587.98-1.4,2.285-2.583,2.8-4.392-1.122-.261-1.832.7-2.79.956.253-1.426,2.693-2.515,3.6-1.673.588.544.225,1.19-.014,1.786-.65,1.624-1.935,2.831-2.975,4.419" transform="translate(-696.374 -334.042)"/><path class="d" d="M1008.236,508.127c-1.244-.113-1.91.776-2.853.986.221-1.36,2.6-2.492,3.549-1.714.706.583.284,1.286.036,1.914-.635,1.609-1.956,2.776-2.858,4.243.7.254,1.289-.469,2.005-.029-.461.291-.882.6-1.337.836a1.49,1.49,0,0,1-1.932-.127c-.739-.767.178-1.137.487-1.584.994-1.439,2.35-2.644,2.9-4.526" transform="translate(-689.473 -334.935)"/><path class="d" d="M995,518.886c-.617-1.993.148-3.828.536-5.7.046-.224.191-.537.536-.472a.459.459,0,0,1,.355.608A23.3,23.3,0,0,1,995,518.886" transform="translate(-684.12 -337.973)"/><path class="f" d="M1029.68,454.158a.681.681,0,0,1-.841.526c-.355-.036-.6-.206-.552-.612.062-.483.442-.562.819-.539a.563.563,0,0,1,.575.625" transform="translate(-702.429 -305.644)"/><path class="f" d="M900.3,464.313a14.239,14.239,0,0,0,1.576-1.288c1.031-1.13,2.045-2.278,3.017-3.459a5.85,5.85,0,0,1,2.557-1.987,9.145,9.145,0,0,1,2.125-.431c.637-.035.765.194.785.477.034.418-.323.519-.655.6-.567.136-1.145.241-1.7.423a4.633,4.633,0,0,0-2.76,5.539,2.386,2.386,0,0,0,1.891,1.777,2.307,2.307,0,0,0,2.433-1.128,3.5,3.5,0,0,0,.569-3.27,3.358,3.358,0,0,0-.79-1.028c-.192-.177-.619-.309-.281-.741a.609.609,0,0,1,.794-.19c.254.1.551.176.828.264a3.121,3.121,0,0,0,4.329-2.9,7.21,7.21,0,0,1,.3-1.781.848.848,0,0,1,1.07-.509.927.927,0,0,1,.649,1.095,7.027,7.027,0,0,1-.681,1.51,5.685,5.685,0,0,0,1.531-.472c.242-.11.775-.482,1.172-.665a.764.764,0,0,1,1,.112.821.821,0,0,1,0,1.017,22.608,22.608,0,0,0-1.127,2.122,13.58,13.58,0,0,0-.748,2.5,1.581,1.581,0,0,0,.787,1.781,1.726,1.726,0,0,0,2.049-.179,18.436,18.436,0,0,0,1.788-1.628,28.182,28.182,0,0,0,3.947-5.89,4.209,4.209,0,0,1,.616-.889.647.647,0,0,1,.891-.124c.343.226.317.531.191.869-.436,1.161-.889,2.316-1.285,3.491a7.134,7.134,0,0,0-.369,1.592,1.25,1.25,0,0,0,.674,1.309,1.233,1.233,0,0,0,1.322-.257,12.908,12.908,0,0,0,2.892-2.785c1.015-1.146,1.783-2.456,2.757-3.639a7.134,7.134,0,0,1,3.589-2.571,6.353,6.353,0,0,1,1.617-.16.482.482,0,0,1,.531.376.473.473,0,0,1-.3.587,2.624,2.624,0,0,1-.92.083,3.693,3.693,0,0,0-3.1,1.77,5.665,5.665,0,0,0-.949,2.984,2.9,2.9,0,0,0,.894,2.275,2.164,2.164,0,0,0,2.807.235c1.615-1.127,2.281-3.151.634-4.755a2.607,2.607,0,0,1-.223-.241c-.213-.269-.424-.6-.108-.862a.876.876,0,0,1,.786-.04,3.925,3.925,0,0,0,4.9-.8c.185-.171.509-.489.777-.423.319.121-.044.587-.16.728a4.594,4.594,0,0,1-2.733,1.686c-1.254.241-1.539.384-1.351,1.732a4.833,4.833,0,0,1-2.737,5,3.292,3.292,0,0,1-4.762-2.164,8.024,8.024,0,0,1-.2-2.543,10.672,10.672,0,0,1-.928,1.254,16.651,16.651,0,0,1-2.362,2.609,7.8,7.8,0,0,1-1.492,1.092,2.085,2.085,0,0,1-3.326-1.467,7.061,7.061,0,0,1,.061-1.873c-.322.372-.89,1.125-1.1,1.376a28.157,28.157,0,0,1-2.781,2.942,4.2,4.2,0,0,1-1.886.821,2.533,2.533,0,0,1-3.137-2.7,15.459,15.459,0,0,1,.648-2.866c.136-.518.345-1.018.545-1.6a2.472,2.472,0,0,0-1.961.809,4.242,4.242,0,0,1-3.216,2.01c-1.036.191-1.416.3-1.214,1.577a4.766,4.766,0,0,1-1.852,4.455,3.725,3.725,0,0,1-3.609.662,3.073,3.073,0,0,1-2.138-2.774c-.061-.53-.1-1.063-.166-1.868a69.592,69.592,0,0,1-5.975,5.063,3.488,3.488,0,0,1-2.136.721,1.7,1.7,0,0,1-1.558-1.171,1.355,1.355,0,0,1,1.145-1.849c.613-.074,1.241-.02,1.857-.078a2.924,2.924,0,0,0,2.784-2.362c.094-.353.192-.705.261-1.063a1.451,1.451,0,0,0-.585-1.547,1.383,1.383,0,0,0-1.554.018,10.12,10.12,0,0,0-3.648,3.554,22.306,22.306,0,0,0-3.09,8.356,38.487,38.487,0,0,0-.436,3.873c-.067,1.09.049,2.229-.032,3.317-.049.65-.339.963-.823.968a.82.82,0,0,1-.888-.923,111.489,111.489,0,0,1,2.185-13.563c-.423.289-1.8,1.616-2.35,2.088a4.787,4.787,0,0,1-1.37.866,1.889,1.889,0,0,1-2.774-1.866c-.029-.726.072-1.456.075-2.185,0-.493.139-1.092-.452-1.351-.353-.133-.886.224-1.239.514a25.721,25.721,0,0,0-4.754,5.263c-.083.12-.147.252-.225.376-.269.427-.594.761-1.161.584-.536-.167-.579-.631-.546-1.071.081-1.088.2-2.175.318-3.26.057-.5.241-1.1-.165-1.424-.363-.294-1.008.189-1.407.5a33.01,33.01,0,0,0-5.515,5.6,4.1,4.1,0,0,1-.558.671c-.177.143-.51.315-.643.241a.951.951,0,0,1-.428-.662,4.6,4.6,0,0,1,.157-1.187c.1-.383.4-1.5.47-1.923-.4.425-1.091,1.337-1.306,1.6a26.61,26.61,0,0,1-7.456,6.676,12.169,12.169,0,0,1-5.7,1.734,7.222,7.222,0,0,1-7.338-4.958,12.576,12.576,0,0,1-.247-6.378c.059-.372.106-1.174.207-1.649a20.57,20.57,0,0,0-1.972.921,3.407,3.407,0,0,1,.284-1.453c.519-.216,1.668-.853,2.195-1.075,0,0,.478-.907.777-1.572a28.452,28.452,0,0,1,5.525-7.833c.576-.607,1.166-1.2,1.788-1.763.469-.421.5-.391,1.42-.188-.393.451-.729.856-1.085,1.24a35.073,35.073,0,0,0-6.014,8.165c-.129.261-.254.526-.36.8-.035.092-.229.415-.323.637.3-.081.9-.291,1.148-.375,2.664-.885,5.311-1.824,7.992-2.653a18.733,18.733,0,0,1,5.369-.941c.37,0,.921-.138.944.448.021.536-.493.556-.891.578-4.071.223-7.83,1.624-11.582,3.055-.885.337-1.759.7-2.646,1.03a8.955,8.955,0,0,0-.88.344s-.111.642-.15.959c-.286,2.332-.4,4.619.719,6.843a7.107,7.107,0,0,0,7.443,3.572,17.578,17.578,0,0,0,9.077-5.584,27.367,27.367,0,0,0,4.165-5.743c.552-1.061.779-1.16,1.874-1.176-.285,1.494-1.235,3.194-1.254,4.974a3.516,3.516,0,0,0,.72-.554c.8-.7,1.543-1.453,2.369-2.111.909-.724,2.878-2.243,3.543-2.309.814-.157,1.282.173,1.342,1a15.018,15.018,0,0,1-.035,1.748c-.019.429-.088,1.122-.142,1.822.364-.364.691-.628.862-.8a29.305,29.305,0,0,1,4.859-4.322,3.366,3.366,0,0,1,.973-.312c.839-.143,1.292.107,1.4.956a23.284,23.284,0,0,1,.06,2.614,4.991,4.991,0,0,0,.052,1.185.955.955,0,0,0,1.539.605,8.455,8.455,0,0,0,1.395-1.219,28.8,28.8,0,0,0,5.408-7.912,9.247,9.247,0,0,1,.825-1.412,1,1,0,0,1,.628-.363c.462-.058.628.391.353.962-.521,1.084-1.064,2.159-1.586,3.243-.085.177-.307.72-.478,1.154.281-.25,1.008-.989,1.294-1.233.608-.52,1.233-1.035,1.884-1.493a2.121,2.121,0,0,1,2.461-.247,2.637,2.637,0,0,1,1.224,2.524,5.711,5.711,0,0,1-.85,2.567" transform="translate(-602.11 -304.76)"/><path class="f" d="M872.173,441.659c-1.795.02-3.2-.088-8.706,1.536a35.424,35.424,0,0,0-6.678,2.951,2.2,2.2,0,0,0-1.375,1.928c-.025.619-.364.87-.8.787a.794.794,0,0,1-.547-1.19,6.053,6.053,0,0,1,1.426-1.61,23.772,23.772,0,0,1,5.68-3,29.4,29.4,0,0,1,7.128-2.011,26.029,26.029,0,0,1,4.459-.263,4.41,4.41,0,0,1,1.662.469,1.4,1.4,0,0,1,.315,2.426,4.594,4.594,0,0,1-1.908.961.4.4,0,0,1-.453-.26.346.346,0,0,1,.153-.454c.3-.193.65-.267.97-.483a1.06,1.06,0,0,0,.582-.808,1.11,1.11,0,0,0-.628-.763,2.95,2.95,0,0,0-1.275-.211" transform="translate(-607.184 -298.671)"/><path class="f" d="M983.722,459.43a.4.4,0,0,1-.111-.624,5.228,5.228,0,0,0,1.216-2.031c.039-.2.261-.2.478-.086a.448.448,0,0,1,.275.514,3.363,3.363,0,0,1-1.34,2.089c-.175.141-.371.237-.519.137" transform="translate(-677.968 -307.329)"/></g></g></svg>