<svg xmlns="http://www.w3.org/2000/svg" width="223.714" height="203.83" viewBox="0 0 223.714 203.83"><defs><style>.a{fill:#d8412c;}.b{fill:#fff;}</style></defs><g transform="translate(-414 -1371.17)"><path class="a" d="M528.808,335.595c-.211-.7-.421-2.839-1.571-1.234l-1.821,1.147a.529.529,0,0,1-.189.262q.095-.13.189-.262L523,335.334c-1.212-1.274-2.581-.734-3.9-.819l-.026.013.019-.034c0,.008.005.013.007.021l.027-.082h0l-.054,0c-.374-1.308-1.161-.857-1.816-.968-.219-1.771-1.986-.9-2.113-2.867,3.966-3.7,3.966-3.7,5.778-2.793,1.211,1.475,2.12,1.26,2.642-1.137-.252-2.682-.416-3.073-.872-2.609-2.613,2.657-5.344-1.5-7.924.487-.221-1.968-.769-2.944-2.068-1.645a.453.453,0,0,1-.086.23l.086-.23c-.855-1.028-2.594-2.082-.6-3.73,1.127-.931.223-3.352,1.605-3.635.347-.071.853-.511.519-1.354-.288-.728-.737-1.135-1.319-.815-3.951,2.174-7.89,1.729-11.956-.186,1.47.559.548-1.96,1.6-2.419,2.365-1.027.678-3.687.009-4.061-3.534-1.973-6.623-6.98-10.948-4.225-.83.529-1.848.346-2.78.492-1.9-2.507-3.8.836-5.7-.015-.35-.4-.535-1.336-1.144-.89a2.99,2.99,0,0,0,.026-.53,2.022,2.022,0,0,0-1.887-1.588,8.56,8.56,0,0,0-1.006-.053,2.05,2.05,0,0,0,.838-.767l-.062-.09c1.142-.781.145-1.939.211-2.909-.468-1.032-.942-.022-1.413-.011h0c-.328-.762-.767-1.093-1.355-.829l-3.79.166c0-3.6,2.489-2.26,3.763-4.341a31.3,31.3,0,0,1-4.437-.042c-1.693-.261-1.764,1.335-1.753,3.184-1.689.291-3.287,1.22-5.064,1.028-1.953-.211-.008,1.148-.163,1.734a18.62,18.62,0,0,0-7.8.8,70.9,70.9,0,0,1-21.634,4.129c-9.025.309-17.831,3.8-26.744,5.786-2.466.549-4.766,2.658-7.358,1.879-1.817,2.08-3.06,5.174-3.262,4.934a1.641,1.641,0,0,1-.038.218l-3.11.1c.887-1.553,2.243-.877,3.3-1.066l.28-.91c.172-1.344.131-1.7.3-3.047-5.92.962-11.924,3.244-17.731,5.143a6.441,6.441,0,0,0-5.207,3.648c-.192,0-.338.131-.436.388-1.674.75-3.5.444-5.09,1.791-.952-.223-1.737.521-2.556,1.066-1.738.212-3.583-.059-4.778,2.581l-1.538.193c-1.112-2.065-1.787-.637-2.743.949H361.9q.006.991.012,1.983l-.028.008c0,.014.01.023.014.037-.731.425-1.569-1.661-2.166.172-.085.26.557,1.09.862,1.657a38.21,38.21,0,0,0-8.768,3.354,3.951,3.951,0,0,0,.2.658c.054.105.192.105.293.152q.033.885.064,1.77l-1.217,1.047c-.9-.045-1.838-.175-1.981,1.8-3.722,2.119-7.782,2.833-11.475,5.937,2,1.823,3.648,1.455,5.336.552,4.054-2.167,8.264-2.625,12.511-2.6q-.015.489-.019.98c-.166.333-1.043.147-.411,1.02.411.568,1.243-.066,1.616.98l-2.954,1.248h0l-3.281-.049.128.19a.586.586,0,0,1-.128-.19c-1.817-.228-3.278.821-4.428,2.983-3.295.892-6.593,1.762-9.424,4.837-3.367-2.475-5.915,1.576-8.93,2.094.91,2.394,2.541-1.243,3.184,1.707-1.359.757-2.695,1.637-4.079,2.253-3.873,1.724-6.59,6.81-10.442,8.563-1.184.14-2.49-.269-3.3,1.655.882,1.317,1.882-1.866,2.68.348-.833,1.375-.639,2.021.551,1.628,2.957-.975,5.876-2.317,8.858-3,3.151-.722,6.239-2.736,9.473-2.31l.172,1.262-6.352,3.5c-.46-.221-.9-.967-1.4-.212-.516.78.1,1.451.134,2.183-2.331,2.85-5.812,3.471-7.565,9.082,9.738-3.105,18.8-6.154,27.933-8.649,6.472-1.767,12.763-5,19.288-6.506l.684,1.067h0l-.768.568c.877-.378,1.4,3.4,2.493.509q.106-.519.211-1.041h0c1.486-.961,2.878,1.509,4.371.288.928-.635,2.112.233,2.905-1.2,1.914.293,3.612-.936,5.359-1.824,1.069-.289,2.225-.023,3.157-1.19h0l1.46-.948h0c.792,1.717,1.545.271,2.311-.068,5.17-1.607,10.337-3.238,15.511-4.818a122.369,122.369,0,0,1,24.261-4.978c.819,2.272,1.678,2.4,2.581.114,5.653.286,11.314,1.8,16.951-.267l1.93.171c.672,3,1.905,2.207,3.179,1.134,1.08-.205,2.191-.234,3.122-1.3.312.035.645.2.932.087,7.874-3.081,16.034-1.351,24.014-3.509,3.308-.895,6.781-.161,9.812-3.21.83-.614,1.741,3.844,2.519-.1-.234-1.645.855-1.88,1.256-2.848l3.062-.25.678,1.038a4.979,4.979,0,0,0-.307.687.668.668,0,0,0,.1.406,5.139,5.139,0,0,0,5.3-3.7c1.086-3.023-.8-4.99-2.111-6.8a6.834,6.834,0,0,0-1.658-1.371,2.174,2.174,0,0,1-.5-2.459c.27-.921.826-.8,1.33-.375,1.261,1.055,2.648.918,4,.966,3.1.107,6.073.291,8.994,2.8.948.816,2.62,5.448,4.467,1.066.568,1.078,1.181,1.492,1.9.3h0c1.317-.567,2.544.431,3.823.526l.984.433c1.137.8,2.367,2.143,2.8-1.15v.008c.328-.237,1.185.288.829-.9M331.741,357.3c.306-.417.611-.834,1.063-.505-.354.169-.709.336-1.063.505m26.543-15.729c-.013.018-.027.03-.039.05a3.245,3.245,0,0,1-1.168.281,6.575,6.575,0,0,1,1.079-.327c.578-.829,1.285-.711,1.973-.733-.684.036-1.325-.009-1.845.729m3.056-1.046a1.949,1.949,0,0,1-.612.234,1.362,1.362,0,0,0,.353-.16c-.226-.552.453-.11.259-.074m4.344-1.056c.871-.719,1.662-2.38,3.232-.38l-3.232.38m3.793-1.371c.831-1.685,1.682-1.9,2.783-1.492a2.13,2.13,0,0,1-2.783,1.492m7.722-16.559a4.413,4.413,0,0,0-1.283.365c-.158.08-.319.14-.48.208l-.019-.03c.547-.37,1.167-.481,1.645-1.089a2.421,2.421,0,0,0,.166-1.116c.465.393.929,1.165,1.394,1.467-.473.07-.949.128-1.423.194m4.28,43.355-.76-.073c.624-1.673,1.741-.562,2.566-1.1-.12,2.188-1.233.675-1.807,1.172m11.093-48.918c-.115.545-.338.451-.72.179a10.713,10.713,0,0,1,.974-.589,2.751,2.751,0,0,0-.254.41m55.823,36.947v.006a1.3,1.3,0,0,0-.106-.193c-.405-.5-.936-.509-1.943-1.25a22.009,22.009,0,0,0,2.967-.114,5.9,5.9,0,0,0-.918,1.552m4.405-.872c-.382-.341-.862-.152-1.358.126-.059.044-.112.1-.169.145a3.775,3.775,0,0,0-.6-1.024,6.887,6.887,0,0,1,2.358.295q-.118.216-.228.458m2.537-50.979c-.678,1.7-1.886.549-3.094,2.112.924-3.212,1.926-3.149,3.094-2.112.006-.015.012-.025.018-.039l.015.068-.033-.029m17.919-3.56c-1.247,2.277-2.76,1.276-4.239.992l4.239-.992m-5.55.68c-1.067,1.956-2.047,2.076-3.861,1.473l3.861-1.473m7.183,4.886c.084,1.324-.7,1.463-1.157,2.052-.907-.639-1.5-2.241-2.654-2.121h0l-2.537.14-2.47-.164c-1.4,1.131-2.91,1.056-4.419,1.033-.261.849-.7,1.141-1.26.864a.942.942,0,0,1-.235-.664,1.227,1.227,0,0,1,1.565-1.049l4.35-.865,3.034-.387c1.322-1.853,2.6.071,3.9.1-.37-1.444-.08-2.1.935-1.908,1.283.245,1.541,1.274.946,2.965m5.667,1.857c-.78.111-1.569,1.03-2.386-.124.542-2.451,1.954-1.62,3.051-1.933l-.665,2.056m27.152,21.241c-2.867.925-5.75,1.729-9.447,2.8,2.8-5.658,5.6-6.976,9-5.534.471.2,1.155.19,1.08,1.308-.035.521-.363,1.336-.638,1.424" transform="translate(100.908 1080.125)"/><g transform="translate(447 1384)"><path class="b" d="M62.063,131.439a9.134,9.134,0,1,0,9.134-9.146,9.15,9.15,0,0,0-9.134,9.146Zm12.681,0A3.546,3.546,0,1,1,71.2,127.88,3.557,3.557,0,0,1,74.744,131.439ZM68.553,59.785a9.146,9.146,0,1,0,9.134,9.146A9.15,9.15,0,0,0,68.553,59.785Zm0,12.705A3.559,3.559,0,1,1,72.1,68.931,3.557,3.557,0,0,1,68.553,72.49Zm-3.1,41.758a9.146,9.146,0,1,0-9.134-9.146,9.15,9.15,0,0,0,9.134,9.146Zm0-12.7a3.559,3.559,0,1,1-3.546,3.559A3.557,3.557,0,0,1,65.458,101.543ZM150,132.616a9.146,9.146,0,1,0-9.134-9.146A9.15,9.15,0,0,0,150,132.616Zm0-12.7a3.559,3.559,0,1,1-3.546,3.559A3.557,3.557,0,0,1,150,119.911Zm-36.519,2.523a9.134,9.134,0,1,0,9.134-9.146A9.15,9.15,0,0,0,113.477,122.434Zm12.68,0a3.546,3.546,0,1,1-3.546-3.559A3.557,3.557,0,0,1,126.158,122.434ZM175.12,82.96A87.339,87.339,0,0,0,87.8,0,87.23,87.23,0,0,0,83.54,174.362,6.848,6.848,0,0,0,90.6,167.6V90.027h77.773a6.839,6.839,0,0,0,6.751-7.068ZM29.937,29.5A81.34,81.34,0,0,1,85.01,5.64V16.882A70.524,70.524,0,0,0,17.3,84.44H6.023A80.978,80.978,0,0,1,29.937,29.5ZM42.09,57.913a8.2,8.2,0,0,1-14.578,5.169,64.731,64.731,0,0,1,7.315-13.339,8.228,8.228,0,0,1,7.263,8.169ZM85.009,167.6a1.075,1.075,0,0,1-1.2,1.178A81.729,81.729,0,0,1,6.023,90.027H17.3a70.6,70.6,0,0,0,67.705,67.56ZM28.356,113.375a10.348,10.348,0,0,1,6.268-2.087,10.512,10.512,0,0,1,5.214,19.622A65,65,0,0,1,28.356,113.375ZM85.009,151.99a64.8,64.8,0,0,1-41.133-17.04A16.1,16.1,0,0,0,34.624,105.7a15.9,15.9,0,0,0-8.358,2.344A64.315,64.315,0,0,1,22.9,90.027H85.009ZM90.6,84.44V51.892a2.794,2.794,0,1,0-5.587,0V84.44H22.9a64.38,64.38,0,0,1,2.6-15.579A13.8,13.8,0,1,0,38.608,44.936a64.914,64.914,0,0,1,46.4-22.463V38.855a2.794,2.794,0,1,0,5.587,0V22.473a64.752,64.752,0,0,1,16.831,2.961,13.1,13.1,0,1,0,22.752,12.7,64.657,64.657,0,0,1,22.531,46.3H90.6Zm20.062-51.5A7.509,7.509,0,0,1,113,27.482a64.976,64.976,0,0,1,12.519,7,7.506,7.506,0,0,1-14.857-1.538ZM90.6,16.882V5.64a81.738,81.738,0,0,1,78.943,77.59,1.075,1.075,0,0,1-1.17,1.21H158.307A70.542,70.542,0,0,0,90.6,16.882Zm94.932,84.138H152.781a2.794,2.794,0,1,0,0,5.587h15.883a64.693,64.693,0,0,1-22.983,46.7,15.148,15.148,0,1,0-26.816,13.581,64.928,64.928,0,0,1-12.347,1.717V107.784a1.174,1.174,0,0,1,1.169-1.177h32.057a2.794,2.794,0,1,0,0-5.587H107.686a6.768,6.768,0,0,0-6.756,6.764v77.643a5.623,5.623,0,0,0,5.73,5.571,87.328,87.328,0,0,0,84.435-84.241A5.618,5.618,0,0,0,185.529,101.02Zm-54.112,47.806A9.587,9.587,0,0,1,140.874,157a64.9,64.9,0,0,1-16.2,8.21,9.592,9.592,0,0,1,6.744-16.384Zm30.169,12.721a81.583,81.583,0,0,1-55.069,23.864V174.194c35.974-1.315,66.349-30.645,67.737-67.587h11.255a81.219,81.219,0,0,1-23.923,54.94Zm-39.02-91.79A9.134,9.134,0,1,0,131.7,60.61,9.15,9.15,0,0,0,122.567,69.757Zm12.681,0A3.546,3.546,0,1,1,131.7,66.2,3.557,3.557,0,0,1,135.247,69.757ZM68.553,32.567a9.146,9.146,0,1,0,9.134,9.146A9.15,9.15,0,0,0,68.553,32.567Zm0,12.7A3.559,3.559,0,1,1,72.1,41.713,3.557,3.557,0,0,1,68.553,45.272Zm36.262,14.513a9.146,9.146,0,1,0,9.134,9.146A9.15,9.15,0,0,0,104.815,59.785Zm0,12.705a3.559,3.559,0,1,1,3.546-3.559A3.557,3.557,0,0,1,104.815,72.49Z" transform="translate(-0.383 0)"/></g></g></svg>