<svg xmlns="http://www.w3.org/2000/svg" width="42" height="42" viewBox="0 0 42 42"><defs><style>.a{fill:#d8422d;}.b{fill:none;stroke:#fff;stroke-linecap:round;stroke-linejoin:round;stroke-width:2px;}</style></defs><g transform="translate(-1058 -604)"><circle class="a" cx="21" cy="21" r="21" transform="translate(1058 604)"/><path class="b" d="M12.562,4.4A3.631,3.631,0,0,1,15.43,7.273M12.562,1.5a6.535,6.535,0,0,1,5.773,5.765m-.726,5.794v2.178a1.452,1.452,0,0,1-1.583,1.452A14.37,14.37,0,0,1,9.76,14.461,14.159,14.159,0,0,1,5.4,10.1a14.37,14.37,0,0,1-2.229-6.3A1.452,1.452,0,0,1,4.619,2.226H6.8A1.452,1.452,0,0,1,8.249,3.475a9.323,9.323,0,0,0,.508,2.04,1.452,1.452,0,0,1-.327,1.532l-.922.922a11.618,11.618,0,0,0,4.357,4.357l.922-.922a1.452,1.452,0,0,1,1.532-.327,9.323,9.323,0,0,0,2.04.508A1.452,1.452,0,0,1,17.609,13.06Z" transform="translate(1068.332 616)"/></g></svg>